<svg t="1694679325221" class="icon" viewBox="0 0 1024 1024" version="1.1" xmlns="http://www.w3.org/2000/svg" p-id="4363" width="200" height="200"><path d="M512 110.411294a401.588706 401.588706 0 1 1-7.047529 0.060235L512 110.411294z m19.094588 557.778824v204.8c54.934588-13.613176 103.966118-84.630588 131.011765-185.344a566.452706 566.452706 0 0 0-117.639529-18.913883l-13.372236-0.602353z m-38.249412 0a569.464471 569.464471 0 0 0-130.951529 19.456c26.985412 100.713412 76.016941 171.730824 130.951529 185.283764v-204.8z m-167.574588 30.72l-2.288941 0.783058c-31.503059 10.962824-62.464 24.816941-92.882823 41.502118a363.821176 363.821176 0 0 0 174.863058 118.061177c-34.093176-37.948235-61.680941-93.665882-79.691294-160.346353z m373.458824 0l-0.481883 1.807058c-18.070588 65.837176-45.417412 120.952471-79.269647 158.539295a363.640471 363.640471 0 0 0 174.923294-118.061177 608.496941 608.496941 0 0 0-95.171764-42.285176z m176.489412-177.332706H722.221176c-0.602353 49.272471-5.722353 96.436706-14.637176 139.986823 37.044706 12.468706 73.426824 28.672 108.965647 48.489412 33.912471-51.983059 54.814118-113.242353 58.247529-179.079529l0.361412-9.396706z m-573.500236 0H148.781176a361.411765 361.411765 0 0 0 58.608942 188.53647c35.538824-19.877647 71.920941-36.080941 109.025882-48.609882-8.131765-39.152941-13.071059-81.257412-14.396235-125.229176l-0.301177-14.697412z m382.313412 0H531.094588v108.303059c47.646118 1.445647 94.208 8.312471 139.745883 20.48a698.127059 698.127059 0 0 0 12.830117-113.664l0.361412-15.179295z m-191.186824 0H339.968c0.602353 45.598118 5.240471 89.027765 13.251765 128.843294a606.870588 606.870588 0 0 1 139.685647-20.48v-108.42353zM352.677647 376.289882l-0.542118 2.650353c-6.264471 32.647529-10.300235 67.704471-11.685647 104.267294h152.395294V396.950588a607.593412 607.593412 0 0 1-140.167529-20.60047z m318.644706 0l-9.155765 2.409412c-42.767059 10.782118-86.437647 16.865882-131.072 18.191059v86.317176h152.45553a705.054118 705.054118 0 0 0-9.878589-94.32847l-2.349176-12.649412zM206.004706 315.994353l-2.228706 3.433412c-30.117647 48.188235-49.332706 103.966118-53.970824 163.84h152.395295c1.445647-41.381647 6.144-81.136941 13.613176-118.181647-37.345882-12.649412-73.968941-29.033412-109.808941-49.091765z m611.990588 0l-2.469647 1.385412c-35.056941 19.456-70.836706 35.358118-107.339294 47.706353 7.469176 37.044706 12.167529 76.8 13.613176 118.181647h152.395295a361.050353 361.050353 0 0 0-51.07953-159.021177l-5.12-8.31247z m-286.900706-165.044706v207.691294a569.163294 569.163294 0 0 0 131.734588-19.696941c-26.202353-99.568941-73.848471-170.706824-127.578352-186.849882l-4.156236-1.144471z m87.94353 13.673412l0.722823 0.843294c34.213647 38.430118 61.801412 94.810353 79.691294 162.153412a609.28 609.28 0 0 0 96.075294-42.88753 363.821176 363.821176 0 0 0-176.489411-120.109176z m-126.192942-13.673412c-55.416471 13.673412-104.809412 85.835294-131.674352 187.934118 42.887529 11.745882 86.738824 18.311529 131.674352 19.757176V151.009882z m-87.823058 13.673412l-4.216471 1.264941a363.881412 363.881412 0 0 0-172.333176 118.844235c31.442824 17.347765 63.427765 31.683765 96.075294 42.947765 17.167059-64.692706 43.248941-119.205647 75.595294-157.455059l4.818823-5.601882z" p-id="4364" fill="#1afa29"></path></svg>