<?xml version="1.0" standalone="no"?>
<!DOCTYPE svg PUBLIC "-//W3C//DTD SVG 20010904//EN"
 "http://www.w3.org/TR/2001/REC-SVG-20010904/DTD/svg10.dtd">
<svg version="1.0" xmlns="http://www.w3.org/2000/svg"
 width="460.000000pt" height="460.000000pt" viewBox="0 0 460.000000 460.000000"
 preserveAspectRatio="xMidYMid meet">
<metadata>
Created by potrace 1.14, written by Peter Selinger 2001-2017
</metadata>
<g transform="translate(0.000000,460.000000) scale(0.100000,-0.100000)"
fill="#000000" stroke="none">
<path d="M654 4585 c15 -11 17 -18 8 -27 -8 -8 -17 -7 -34 4 -21 14 -25 13
-49 -12 -24 -23 -25 -28 -13 -45 11 -15 17 -16 26 -7 7 7 8 12 4 12 -5 0 -3 6
4 14 17 21 39 9 32 -17 -5 -20 -6 -20 -13 -1 -7 17 -8 17 -8 1 -1 -25 -28 -50
-47 -43 -8 3 -17 -1 -20 -9 -7 -17 -56 -20 -84 -5 -11 6 -21 6 -25 1 -5 -9 32
-27 48 -23 4 1 7 -5 7 -13 0 -18 1 -18 -39 -4 -17 6 -31 15 -31 20 0 14 -38
11 -43 -3 -3 -10 -7 -10 -20 1 -10 7 -17 9 -17 3 0 -6 6 -12 13 -15 9 -3 9 -8
1 -16 -8 -9 -14 -8 -24 4 -7 8 -23 15 -37 15 -14 0 -21 4 -18 10 3 6 -1 10 -9
10 -9 0 -16 -3 -16 -6 0 -13 35 -33 58 -34 12 0 22 -4 22 -9 0 -5 9 -12 19
-16 26 -8 16 -39 -10 -32 -11 3 -17 2 -15 -2 11 -16 -56 -67 -74 -56 -6 4 -10
-1 -10 -9 0 -8 -10 -16 -22 -18 -13 -2 -27 -13 -33 -25 -5 -13 -13 -23 -17
-23 -12 0 -9 13 7 34 20 26 19 32 -5 32 -13 0 -18 -6 -17 -20 1 -10 -4 -21
-11 -24 -9 -3 -13 3 -12 19 4 42 1 46 -40 53 -31 5 -40 11 -40 26 0 15 7 20
29 20 17 0 33 5 36 10 4 6 -6 10 -23 10 -24 0 -33 7 -46 35 -9 19 -23 35 -31
35 -12 0 -15 -19 -15 -100 l0 -100 38 0 c43 0 92 -34 92 -63 0 -10 -4 -15 -10
-12 -5 3 -10 -1 -10 -9 0 -9 -4 -16 -10 -16 -17 0 -100 -83 -99 -99 0 -11 2
-12 6 -3 2 6 9 12 15 12 12 0 38 26 38 38 0 6 14 16 30 24 17 7 30 19 30 25 0
7 7 13 15 13 8 0 15 5 15 10 0 6 5 10 11 10 6 0 27 14 46 30 18 17 40 30 48
30 8 0 15 4 15 9 0 12 73 61 91 61 17 0 49 -54 49 -84 0 -12 9 -41 20 -64 11
-22 20 -46 20 -52 0 -5 5 -10 10 -10 6 0 10 -11 10 -24 0 -19 8 -28 33 -37 19
-6 42 -24 52 -38 9 -15 32 -35 49 -45 l31 -19 -30 -8 c-16 -5 -38 -6 -48 -3
-11 4 -17 1 -15 -8 2 -9 -11 -14 -39 -16 -24 -2 -43 -7 -43 -13 0 -15 -77 -10
-94 7 -18 17 -52 14 -48 -4 1 -8 -15 -12 -48 -12 -37 0 -50 -4 -50 -15 0 -12
-55 -35 -86 -35 -6 0 -23 -11 -38 -25 -15 -14 -31 -25 -37 -25 -14 0 -11 -17
5 -23 7 -3 19 0 25 6 6 6 11 8 11 4 0 -8 18 5 48 35 23 23 53 8 33 -16 -8 -9
-21 -16 -31 -16 -10 0 -20 -7 -24 -15 -3 -8 -13 -15 -22 -15 -9 0 -27 -9 -41
-20 -14 -11 -34 -20 -44 -20 -17 0 -19 -9 -19 -85 0 -78 2 -85 20 -85 11 0 20
5 20 11 0 6 16 8 39 6 31 -3 38 -1 34 10 -4 11 2 14 23 12 16 -1 36 1 44 4 27
10 116 17 123 10 11 -10 47 -11 47 -1 0 4 17 8 38 8 27 0 33 -3 22 -10 -8 -5
-11 -10 -7 -10 12 0 -19 -30 -31 -30 -5 0 -12 -10 -15 -22 -5 -18 -8 -19 -21
-8 -9 7 -16 18 -16 24 0 6 -17 11 -38 12 -20 1 -29 -1 -19 -3 9 -3 17 -13 17
-24 0 -14 7 -19 27 -19 26 0 25 -1 -20 -45 -26 -24 -47 -49 -47 -55 0 -5 -6
-10 -14 -10 -8 0 -24 -13 -36 -30 -14 -19 -30 -30 -45 -30 -18 0 -23 -4 -19
-15 4 -9 1 -15 -7 -15 -8 0 -27 -14 -43 -31 -16 -17 -40 -38 -53 -46 l-23 -15
0 -657 0 -657 47 -13 c52 -14 83 -25 126 -47 16 -8 39 -14 52 -14 13 0 27 -4
30 -10 3 -5 15 -10 25 -10 10 0 23 -6 27 -13 4 -8 16 -17 26 -20 10 -4 16 -11
12 -16 -3 -5 -1 -12 5 -16 5 -3 10 -18 10 -33 0 -15 4 -33 9 -41 5 -8 5 -26
-1 -42 -9 -27 -13 -29 -67 -29 -63 0 -81 -11 -81 -49 0 -20 12 -34 48 -59 42
-28 56 -32 105 -31 39 1 63 -3 75 -13 9 -8 25 -18 34 -21 14 -5 18 -18 18 -51
0 -25 -4 -48 -10 -51 -16 -10 -12 -45 5 -45 8 0 15 -4 15 -9 0 -5 18 -12 40
-16 22 -4 40 -11 40 -16 0 -5 27 -9 60 -9 33 0 60 -4 60 -10 0 -5 18 -10 39
-10 37 0 61 -14 48 -27 -3 -3 -53 -4 -110 -4 -80 1 -119 7 -164 23 -36 13 -90
23 -143 25 -81 4 -85 3 -95 -19 -9 -22 -16 -23 -119 -26 -89 -2 -112 0 -127
14 -25 23 -35 12 -37 -41 -2 -39 1 -45 18 -45 11 0 20 -4 20 -10 0 -5 9 -10
20 -10 11 0 20 -6 20 -13 0 -8 11 -20 25 -27 14 -7 25 -22 25 -32 0 -10 4 -18
9 -18 17 0 28 -85 19 -156 -4 -38 -7 -90 -5 -116 2 -34 -1 -48 -10 -48 -9 0
-13 17 -14 53 -2 84 -3 92 -17 90 -6 -2 -12 6 -12 17 0 15 -6 19 -30 17 -16
-1 -30 -5 -30 -9 0 -5 -4 -8 -10 -8 -5 0 -10 13 -10 30 0 22 4 28 16 23 10 -4
17 1 21 16 5 19 15 25 35 22 5 0 8 6 8 15 0 8 5 12 10 9 6 -3 10 -1 10 4 0 11
-11 14 -27 9 -5 -2 -7 -5 -6 -8 1 -3 -18 -19 -42 -35 l-45 -30 0 -352 c0 -342
1 -351 19 -346 29 7 111 -41 111 -66 0 -6 5 -11 10 -11 13 0 34 -49 31 -73 -2
-16 4 -18 51 -15 49 3 53 5 50 26 -2 15 2 22 14 22 11 0 15 -6 11 -20 -3 -13
1 -24 13 -30 21 -11 30 -4 30 27 0 14 6 23 15 23 8 0 15 -9 15 -19 0 -17 10
-20 75 -26 53 -5 79 -4 89 5 11 8 20 8 35 1 26 -14 81 -14 81 0 0 8 4 8 13 1
6 -5 21 -11 32 -12 11 -1 325 -2 697 -1 672 1 677 1 673 21 -2 11 -6 24 -9 28
-3 5 -6 61 -7 125 -1 94 -4 119 -17 126 -8 5 -12 13 -8 19 7 11 46 4 46 -8 0
-5 9 -12 20 -15 11 -4 18 -11 15 -16 -10 -15 15 -49 37 -49 16 0 19 -5 15 -21
-4 -15 0 -23 14 -26 10 -3 19 -10 19 -15 0 -5 15 -24 34 -41 37 -35 116 -67
166 -67 35 0 100 27 100 41 0 5 4 9 10 9 10 0 37 20 72 52 10 10 25 18 33 18
8 0 15 5 15 10 0 12 77 13 84 1 5 -7 48 -18 101 -25 6 -1 9 -7 8 -14 -2 -7 10
-12 31 -12 18 0 47 -7 62 -15 16 -8 41 -15 57 -15 15 0 27 -4 27 -10 0 -5 11
-10 25 -10 14 0 36 -6 48 -14 12 -8 37 -17 56 -21 19 -4 46 -18 60 -31 24 -22
33 -24 143 -24 110 0 118 1 118 19 0 11 -7 26 -15 35 -8 8 -15 26 -15 41 0 36
-50 112 -64 98 -3 -4 -6 1 -6 10 0 10 -5 17 -10 17 -6 0 -8 -11 -4 -27 6 -22
4 -25 -10 -20 -10 4 -20 7 -22 7 -3 0 -3 4 0 9 4 5 -7 12 -24 16 -16 4 -30 11
-30 16 0 5 -11 9 -25 9 -14 0 -25 -4 -25 -10 0 -5 -5 -10 -11 -10 -6 0 -23 -9
-37 -21 -24 -18 -28 -19 -38 -5 -13 18 -34 21 -34 6 0 -5 -11 -10 -25 -10 -20
0 -24 4 -22 22 2 12 -1 27 -7 34 -15 16 -36 -8 -29 -35 3 -12 1 -21 -6 -21 -6
0 -11 10 -11 23 0 33 -19 47 -64 47 -23 1 -52 7 -66 15 -14 8 -47 14 -74 15
-27 0 -46 3 -43 7 4 4 -11 13 -34 21 -23 7 -53 25 -68 38 -14 13 -31 24 -38
24 -7 0 -13 5 -13 10 0 6 -8 10 -17 10 -26 0 -72 30 -119 78 -23 23 -44 42
-48 42 -9 0 -46 39 -46 48 0 4 -11 16 -25 26 -14 10 -25 24 -25 31 0 7 -9 24
-20 38 -11 14 -20 32 -20 41 0 23 -9 20 -32 -9 -15 -20 -25 -24 -46 -19 -15 4
-31 11 -36 15 -6 5 -25 9 -42 9 -18 0 -35 4 -38 9 -3 5 -22 12 -41 15 -19 4
-35 11 -35 16 0 6 -13 10 -29 10 -16 0 -42 7 -57 15 -16 8 -46 18 -66 21 -21
4 -38 10 -38 15 0 5 -9 9 -20 9 -11 0 -23 7 -26 15 -4 8 -17 15 -29 15 -13 0
-27 5 -30 10 -3 6 -15 10 -25 10 -10 0 -23 6 -27 14 -4 8 -34 26 -65 40 -32
15 -58 31 -58 36 0 6 -9 10 -20 10 -11 0 -20 5 -20 10 0 6 -4 10 -10 10 -14 0
-100 82 -100 95 0 13 -36 45 -50 45 -6 0 -10 5 -10 10 0 6 -8 19 -17 29 -38
42 -43 51 -43 82 0 18 -3 29 -6 26 -10 -9 -45 12 -43 26 2 23 -13 57 -27 57
-16 0 -19 16 -4 25 6 4 8 11 4 16 -3 5 -10 7 -15 4 -17 -11 -31 6 -17 22 10
12 9 17 -5 24 -9 6 -17 19 -17 29 0 11 -7 20 -15 20 -18 0 -19 4 -2 31 10 17
9 22 -5 33 -10 7 -18 21 -18 31 0 10 -10 26 -22 36 -11 11 -16 19 -10 19 16 0
15 29 -1 36 -7 2 -14 19 -15 36 -1 17 -10 37 -19 43 -11 8 -17 31 -19 70 -2
32 -8 63 -14 69 -5 5 -10 27 -10 47 0 20 -7 42 -15 49 -8 7 -15 23 -15 36 0
12 -4 25 -9 28 -8 5 -15 40 -22 106 -1 8 -6 18 -11 21 -14 9 -22 79 -9 79 6 0
11 -7 11 -15 0 -8 5 -15 10 -15 6 0 10 -7 10 -15 0 -8 4 -15 9 -15 5 0 13 -9
16 -20 9 -29 22 -24 27 11 3 20 0 33 -9 36 -7 3 -13 17 -13 32 0 15 -6 35 -14
46 -8 11 -17 55 -21 97 -4 46 -13 82 -21 89 -8 7 -14 31 -14 58 0 26 -4 51 -9
57 -5 5 -11 44 -12 87 -2 43 -6 80 -10 83 -4 2 -10 43 -14 91 -5 71 -3 94 9
118 9 17 16 39 16 50 0 13 7 21 19 22 14 1 21 -10 30 -55 19 -88 42 -161 52
-168 5 -3 9 -16 9 -30 0 -13 5 -24 10 -24 6 0 10 -10 10 -22 0 -12 6 -29 13
-37 7 -9 20 -36 27 -61 16 -51 47 -112 63 -122 24 -15 36 4 31 45 -3 23 -10
78 -15 122 -19 150 -20 170 -10 195 9 22 10 20 10 -22 1 -26 5 -50 11 -53 5
-3 14 -24 20 -47 9 -31 14 -38 23 -29 9 9 9 14 1 19 -13 8 -24 126 -17 166 4
17 14 28 29 32 13 3 24 13 24 20 0 8 8 18 18 21 9 4 22 12 29 17 35 31 43 36
58 36 9 0 14 4 11 9 -3 5 3 11 14 14 13 3 20 0 20 -9 0 -8 10 -14 25 -14 19 0
26 7 33 33 7 22 11 27 16 17 5 -12 23 -14 98 -11 90 3 172 -8 258 -36 24 -8
54 -12 66 -9 14 4 24 1 28 -9 8 -21 33 -19 46 5 9 17 5 24 -31 50 -23 16 -48
30 -56 30 -7 0 -21 4 -31 9 -50 25 -73 33 -127 42 -119 20 -137 21 -148 10 -6
-6 -30 -11 -53 -11 -24 0 -44 -5 -46 -12 -2 -6 -10 -8 -16 -4 -8 5 -11 27 -8
64 5 68 4 62 16 62 6 0 10 -18 10 -39 0 -22 4 -42 9 -45 5 -4 9 14 9 39 -1 25
-4 45 -8 45 -4 0 -7 45 -6 100 0 55 4 100 9 100 4 0 7 6 7 14 0 8 14 16 33 20
18 3 40 15 50 26 9 11 25 20 34 20 10 0 38 11 61 25 46 26 62 25 62 -3 1 -14
2 -14 12 3 7 11 18 26 25 33 7 7 13 18 13 23 0 5 5 9 10 9 6 0 10 -10 10 -22
0 -28 10 -18 16 18 3 16 7 30 9 32 8 8 35 -27 35 -45 0 -10 7 -28 15 -40 8
-12 16 -45 17 -75 1 -32 9 -63 20 -80 10 -14 18 -36 18 -47 0 -12 4 -21 9 -21
5 0 12 -11 15 -25 4 -14 11 -25 16 -25 6 0 10 -11 10 -25 0 -14 11 -42 24 -63
13 -21 27 -52 31 -70 4 -19 13 -36 21 -39 8 -3 14 -11 14 -19 0 -14 34 -54 46
-54 7 0 2 31 -14 93 -8 30 -7 37 4 37 8 0 14 7 14 15 0 17 -16 20 -25 5 -8
-14 -25 -3 -25 16 0 9 8 14 18 13 33 -3 52 1 52 11 0 6 -9 10 -20 10 -21 0
-24 4 -35 54 -5 26 -5 27 10 12 19 -18 31 -20 40 -6 3 6 -3 10 -15 10 -30 0
-16 16 20 24 38 7 30 26 -11 26 -19 0 -29 -5 -29 -15 0 -22 -27 -18 -33 5 -3
13 2 25 14 34 12 8 17 19 13 30 -5 12 0 16 19 16 15 0 31 9 41 25 20 30 21 41
1 25 -8 -6 -18 -9 -23 -6 -5 3 -20 -3 -32 -14 -23 -20 -40 -26 -40 -14 0 10
50 54 61 54 15 0 11 17 -6 24 -9 3 -15 0 -15 -9 0 -18 -27 -20 -32 -3 -3 8
-12 4 -26 -10 -17 -17 -18 -22 -7 -22 8 0 15 5 15 10 0 6 5 10 11 10 6 0 9 -8
7 -17 -2 -10 -7 -16 -12 -15 -5 2 -12 -2 -16 -8 -14 -23 -30 1 -30 46 0 25 -7
55 -15 67 -14 22 -15 63 -2 84 4 6 4 18 1 26 -7 19 29 53 64 60 70 14 88 19
107 27 11 5 46 11 78 13 58 4 59 3 83 -32 13 -20 24 -45 24 -57 0 -13 4 -24 9
-26 6 -1 13 -19 16 -38 3 -19 10 -36 16 -38 5 -2 9 -18 9 -35 0 -18 8 -63 17
-102 l18 -70 3 50 c2 27 -2 68 -7 92 -14 53 -14 76 -1 68 6 -3 10 -15 10 -26
0 -10 5 -19 10 -19 6 0 10 -8 10 -17 0 -10 7 -27 15 -37 8 -11 15 -26 15 -34
0 -8 8 -26 18 -40 10 -15 25 -49 32 -77 7 -27 19 -57 27 -66 7 -8 13 -24 13
-35 0 -10 4 -25 9 -33 5 -8 3 -25 -6 -42 -9 -19 -11 -34 -6 -42 5 -7 10 -23
11 -36 2 -34 14 -42 50 -35 28 6 32 10 32 40 0 19 5 34 10 34 6 0 10 9 10 19
0 13 14 26 40 38 30 13 40 24 40 42 0 19 3 21 14 12 12 -10 17 -8 26 8 6 12
17 21 24 21 8 0 19 7 26 15 7 8 21 15 30 15 10 0 20 4 22 9 6 17 63 -3 64 -21
3 -63 4 -64 19 -44 12 16 17 17 30 6 8 -7 15 -23 15 -36 0 -12 4 -25 9 -29 14
-8 41 -65 41 -87 0 -10 5 -18 10 -18 6 0 10 -9 10 -20 0 -11 4 -20 8 -20 5 0
13 -24 18 -52 6 -38 14 -54 27 -56 15 -3 17 8 17 122 0 69 -4 127 -9 130 -10
7 -24 147 -15 169 3 9 12 13 20 10 8 -3 11 -9 8 -15 -4 -6 8 -7 30 -3 25 5 40
3 50 -8 9 -8 25 -13 36 -10 11 3 20 0 20 -6 0 -6 11 -11 25 -11 17 0 25 -6 25
-17 0 -10 9 -33 20 -51 11 -18 20 -43 20 -57 0 -13 5 -27 10 -30 6 -3 10 -16
10 -29 0 -12 7 -31 15 -42 8 -10 15 -30 15 -44 0 -15 4 -30 8 -35 5 -6 15 -30
22 -55 16 -50 40 -76 52 -57 4 7 8 74 8 150 0 122 2 139 19 156 20 20 20 19
14 -30 -4 -33 -2 -49 6 -49 6 0 11 -8 11 -18 0 -10 3 -22 8 -26 20 -21 61
-273 61 -383 1 -65 3 -73 20 -73 14 0 21 9 26 33 3 17 10 41 15 52 4 11 14 59
21 108 10 70 16 87 29 87 15 0 17 -17 15 -182 -3 -234 -14 -447 -25 -473 -11
-25 -30 -173 -30 -231 0 -24 -4 -45 -9 -49 -6 -3 -13 -26 -17 -50 -3 -25 -10
-48 -15 -51 -5 -3 -9 -27 -9 -55 0 -27 -4 -49 -10 -49 -13 0 -37 -84 -76 -271
-3 -15 -1 -30 5 -33 7 -5 11 4 11 23 0 17 5 31 10 31 6 0 10 18 10 40 0 47 18
53 27 10 3 -17 10 -33 14 -36 15 -9 10 -61 -6 -68 -8 -3 -15 -12 -15 -21 0 -8
-3 -15 -7 -15 -11 0 -33 -50 -33 -72 0 -14 8 -18 39 -18 22 0 44 6 51 15 7 8
18 15 25 15 21 0 74 31 88 51 8 10 17 16 20 12 4 -3 7 -1 7 5 0 5 -6 13 -12
15 -10 4 -10 7 -1 14 16 12 33 59 33 93 0 35 -20 81 -31 74 -5 -3 -9 0 -9 6 0
6 -11 22 -25 36 -24 24 -34 64 -17 64 5 0 17 -7 28 -15 10 -8 29 -15 42 -15
12 0 22 -4 22 -10 0 -5 9 -10 20 -10 11 0 20 5 20 10 0 6 -7 10 -15 10 -8 0
-15 9 -15 20 0 12 -5 17 -14 14 -16 -6 -33 15 -19 25 5 3 12 14 16 23 4 11 12
15 21 12 9 -3 25 5 40 21 l25 27 15 -31 c9 -16 16 -37 16 -46 0 -8 5 -15 10
-15 6 0 10 27 10 60 0 45 -3 58 -13 54 -9 -3 -13 3 -13 17 1 15 -10 29 -30 41
-27 15 -36 17 -58 7 -14 -7 -26 -16 -26 -20 0 -4 -9 -6 -20 -4 -12 2 -20 -2
-20 -9 0 -7 -11 -24 -24 -38 -12 -14 -26 -32 -30 -39 -4 -8 -14 -25 -22 -39
-15 -25 -16 -25 -10 14 3 21 12 46 21 56 8 9 15 26 15 37 0 11 7 26 15 33 8 7
15 19 15 27 0 8 9 28 21 44 17 24 27 29 62 29 55 0 99 -25 137 -77 l30 -43 0
-154 c0 -128 -3 -155 -15 -160 -8 -3 -15 -14 -15 -25 0 -11 -4 -23 -10 -26 -5
-3 -10 -15 -10 -26 0 -10 -4 -19 -8 -19 -5 0 -14 -16 -22 -35 -8 -19 -17 -35
-21 -35 -4 0 -11 -9 -14 -20 -4 -11 -10 -18 -14 -16 -4 3 -20 -8 -35 -25 -15
-16 -32 -29 -38 -29 -5 0 -16 -6 -23 -12 -36 -32 -46 -38 -65 -38 -11 0 -20
-4 -20 -10 0 -5 -11 -10 -24 -10 -14 0 -28 -4 -31 -10 -3 -5 -35 -10 -71 -10
-64 0 -94 13 -94 39 0 6 -7 11 -15 11 -9 0 -15 -9 -15 -25 0 -14 5 -25 10 -25
6 0 10 -7 10 -15 0 -8 5 -15 10 -15 6 0 10 -4 10 -10 0 -5 -7 -10 -15 -10 -9
0 -21 -11 -27 -25 -6 -14 -15 -25 -20 -25 -5 0 -2 10 6 22 15 21 22 78 10 78
-10 0 -34 -28 -34 -39 0 -6 -4 -11 -10 -11 -5 0 -10 -4 -10 -10 0 -5 -16 -24
-35 -43 -19 -19 -35 -38 -35 -43 0 -5 -19 -25 -41 -44 -23 -19 -58 -52 -79
-73 -21 -20 -42 -37 -47 -37 -5 0 -16 -8 -24 -17 -23 -25 -58 -53 -67 -53 -8
0 -42 -37 -42 -45 0 -3 10 -5 23 -5 12 0 34 -11 48 -24 28 -26 76 -46 64 -26
-4 6 5 29 19 50 14 22 26 46 26 54 0 8 5 18 10 21 5 3 10 19 10 36 0 21 5 29
18 29 15 0 17 -10 16 -75 0 -41 4 -75 8 -75 4 0 8 -16 8 -35 0 -26 3 -33 15
-29 8 4 15 15 15 25 0 10 5 19 10 19 6 0 10 9 10 20 0 11 5 20 10 20 6 0 10
-9 10 -20 0 -11 -4 -20 -10 -20 -5 0 -10 -4 -10 -10 0 -6 26 -10 58 -10 41 0
64 -5 78 -17 10 -10 28 -20 39 -21 11 -2 24 -10 28 -18 4 -8 17 -14 27 -14 11
0 20 -4 20 -10 0 -14 -37 -13 -63 2 -33 18 -57 20 -57 4 0 -12 -7 -13 -32 -5
-41 11 -38 12 -38 -5 0 -8 -5 -18 -11 -22 -8 -4 -9 0 -4 15 5 17 2 21 -14 21
-10 0 -26 3 -34 6 -12 4 -16 -3 -19 -27 -3 -36 -28 -53 -28 -20 0 15 -6 21
-21 21 -11 0 -17 5 -14 10 3 6 1 10 -4 10 -6 0 -11 7 -11 15 0 8 -4 15 -10 15
-22 0 -8 -34 30 -71 42 -41 55 -47 64 -26 5 9 7 9 12 0 3 -7 13 -13 22 -13 10
0 30 -7 46 -15 15 -8 43 -15 61 -15 18 0 35 -5 37 -11 2 -6 58 -12 147 -15 80
-3 152 -9 162 -15 10 -5 31 -9 48 -9 20 0 34 -7 41 -20 7 -13 21 -20 40 -20
16 0 32 -5 35 -10 3 -6 15 -10 25 -10 10 0 25 -7 34 -15 8 -8 24 -15 35 -15
12 0 21 -4 21 -8 0 -5 27 -21 60 -37 33 -16 60 -32 60 -37 0 -4 5 -8 11 -8 6
0 17 -6 24 -12 28 -26 44 -38 48 -38 3 0 31 -25 62 -55 61 -58 78 -60 87 -11
5 26 -8 59 -21 52 -4 -3 -14 7 -23 22 -13 24 -14 31 -1 61 l14 34 105 -6 104
-7 0 50 0 50 -45 0 c-25 0 -45 -4 -45 -10 0 -13 -77 -13 -85 0 -3 5 -19 10
-35 10 -16 0 -31 4 -35 9 -3 5 -19 12 -35 16 -17 4 -30 11 -30 16 0 5 -8 9
-18 9 -11 0 -27 9 -37 20 -10 11 -23 20 -29 20 -6 0 -17 9 -23 19 -10 16 -9
20 5 26 9 3 18 1 20 -4 2 -6 21 -14 43 -17 21 -4 39 -10 39 -15 0 -5 22 -9 49
-9 28 0 53 -4 56 -10 8 -13 122 -13 130 0 3 6 22 10 41 10 50 0 47 30 -3 31
l-38 1 40 13 c38 13 34 14 -80 15 -66 0 -139 5 -162 9 -29 6 -41 5 -40 -3 4
-19 -75 -8 -95 14 -10 11 -23 20 -29 20 -6 0 -5 8 2 21 8 15 8 19 0 15 -8 -5
-11 12 -11 53 0 34 4 61 10 61 5 0 12 16 16 35 4 25 12 35 25 35 10 0 21 5 24
10 3 6 19 10 36 10 16 0 29 -4 29 -10 0 -6 44 -10 111 -10 105 0 112 1 147 27
50 37 52 41 52 96 0 49 -8 57 -34 32 -8 -8 -20 -15 -26 -15 -6 0 -18 -6 -26
-14 -34 -35 -143 -29 -236 12 -41 17 -41 17 -38 75 1 21 -3 44 -9 51 -6 7 -11
24 -12 37 -6 190 -12 259 -20 259 -6 0 -9 22 -7 52 l3 52 70 13 c39 7 99 15
135 18 35 3 69 10 74 15 6 6 18 10 27 10 19 0 27 22 21 57 -6 30 -62 50 -78
28 -6 -8 -22 -15 -36 -15 -13 0 -28 -4 -33 -9 -6 -5 -41 -14 -80 -19 -68 -9
-70 -9 -97 19 -20 20 -28 37 -28 63 0 20 -4 36 -10 36 -5 0 -10 24 -10 53 0
29 -5 58 -10 63 -6 6 -13 34 -17 62 -3 29 -9 52 -13 52 -5 0 -11 28 -14 63
-15 143 -18 162 -28 168 -7 4 -6 9 1 13 6 4 11 2 11 -3 0 -6 15 -11 34 -11 19
0 38 -4 41 -10 3 -5 15 -10 26 -10 10 0 19 5 19 10 0 6 16 10 36 10 21 0 33 4
29 10 -3 6 1 10 10 10 9 0 39 17 68 39 42 30 52 44 54 70 2 32 -5 37 -35 22
-60 -29 -93 -40 -135 -46 -27 -4 -57 -8 -66 -10 -27 -5 -111 15 -111 27 0 6
-7 8 -15 5 -9 -4 -21 8 -36 39 -16 30 -25 40 -31 32 -5 -8 -8 -3 -8 15 0 15
-4 27 -8 27 -4 0 -14 20 -21 45 -7 25 -16 45 -20 45 -9 0 -32 85 -38 144 -3
27 -12 56 -20 64 -9 10 -13 25 -9 42 3 16 -1 36 -11 50 -12 17 -13 27 -5 40 7
12 7 21 1 27 -25 25 6 293 33 293 5 0 8 7 8 16 0 8 13 29 30 45 16 17 33 36
37 42 23 35 132 61 190 45 48 -13 155 -108 168 -149 4 -13 18 -38 31 -55 13
-17 24 -36 24 -41 0 -6 7 -13 15 -17 8 -3 15 -15 15 -27 0 -13 7 -30 15 -39 9
-10 18 -40 22 -69 3 -28 9 -51 13 -51 4 0 11 -24 14 -52 4 -29 12 -58 17 -64
5 -7 10 -85 11 -175 0 -90 3 -166 7 -169 9 -7 41 -105 41 -126 1 -17 2 -17 13
-4 7 8 24 21 40 27 l27 13 0 407 -1 408 -22 17 -22 18 23 0 c20 0 22 5 22 50
l0 50 -60 0 c-33 0 -60 -4 -60 -10 0 -6 -9 -6 -24 1 -18 9 -30 7 -56 -6 -17
-9 -34 -15 -36 -12 -9 9 9 37 25 37 13 0 14 2 2 9 -12 8 -10 12 12 22 29 13
31 32 4 37 -11 2 -17 -3 -17 -15 0 -20 -49 -47 -77 -41 -13 2 -17 11 -15 31 3
24 0 27 -25 27 -32 0 -82 29 -51 30 9 0 18 -5 20 -12 3 -8 16 -5 41 11 l37 23
10 -26 c6 -16 17 -26 30 -26 27 0 27 36 0 50 -26 14 -26 36 1 43 17 5 19 9 10
25 -11 21 -51 37 -51 20 0 -5 -9 -6 -20 -3 -11 4 -20 2 -20 -4 0 -6 5 -11 11
-11 8 0 8 -4 0 -14 -16 -19 -90 -31 -103 -18 -6 6 -17 8 -26 5 -11 -5 -13 -3
-7 7 5 8 2 18 -9 25 -15 11 -14 13 11 20 15 3 30 11 33 16 3 5 23 10 43 11 23
2 37 8 37 17 0 8 -6 11 -15 7 -8 -3 -15 -1 -15 4 0 5 17 11 38 13 31 3 29 4
-14 5 -42 2 -56 -2 -75 -22 -13 -13 -43 -29 -66 -36 -43 -13 -54 -25 -31 -32
19 -7 -2 -28 -28 -28 -13 0 -24 -4 -24 -10 0 -5 -15 -10 -34 -10 -19 0 -38 5
-41 10 -4 6 8 10 30 10 20 0 34 4 31 9 -3 5 2 12 12 16 16 6 16 7 -2 20 -17
13 -17 15 -3 21 10 3 24 4 32 0 8 -3 15 -1 15 3 0 15 69 51 96 51 15 0 23 4
19 10 -5 7 14 9 59 5 43 -4 71 -2 84 6 17 11 23 9 44 -14 22 -24 25 -24 35 -8
13 21 0 41 -28 41 -25 0 -17 34 9 38 12 2 22 -1 22 -7 0 -6 12 -11 26 -11 23
0 26 3 21 26 -3 16 0 28 9 31 8 3 12 9 9 13 -3 5 12 14 32 20 77 23 83 29 83
81 0 26 -4 50 -8 53 -4 2 -28 2 -52 -1 -34 -5 -40 -8 -25 -14 16 -6 13 -8 -15
-9 -37 -2 -95 -17 -71 -19 11 -1 10 -5 -5 -15 -17 -13 -22 -12 -45 10 -28 27
-79 30 -79 5 0 -8 3 -12 6 -8 3 3 15 -3 27 -14 11 -10 27 -19 34 -19 25 0 4
-18 -26 -22 -23 -3 -34 2 -53 24 -23 28 -48 37 -48 18 0 -6 8 -14 18 -17 44
-17 52 -53 10 -53 -11 0 -22 -8 -25 -20 -7 -26 -53 -56 -63 -40 -9 15 -60 2
-60 -16 0 -8 9 -14 20 -14 11 0 20 -4 20 -10 0 -5 -11 -10 -25 -10 -14 0 -25
5 -25 10 0 6 -9 10 -19 10 -11 0 -22 6 -25 13 -5 10 -7 10 -12 0 -3 -7 -24
-13 -47 -14 -41 -1 -41 -1 -13 -11 36 -13 17 -28 -36 -28 -20 0 -40 -4 -43
-10 -4 -6 5 -10 19 -10 14 0 26 -4 26 -10 0 -16 -47 -12 -64 6 -13 13 -16 13
-16 1 0 -8 10 -19 23 -25 16 -8 18 -11 5 -11 -9 -1 -19 -7 -21 -13 -4 -10 -7
-10 -15 0 -7 10 -11 10 -22 -3 -11 -13 -9 -15 9 -15 11 0 21 -4 21 -9 0 -6 29
-7 70 -4 47 4 70 2 70 -5 0 -6 -5 -14 -10 -17 -6 -3 -10 -1 -10 4 0 6 -16 11
-35 11 -19 0 -35 -4 -35 -10 0 -5 -13 -10 -28 -10 -31 0 -75 39 -86 77 -4 11
-13 26 -21 33 -19 16 -7 40 20 40 13 0 27 5 30 10 4 6 14 10 23 9 10 -1 34 1
55 6 30 6 36 11 32 25 -5 14 1 20 27 25 18 4 41 14 50 22 9 8 21 12 27 9 5 -4
12 -2 16 4 8 13 45 13 45 0 0 -20 39 -9 70 19 29 26 30 30 15 39 -16 8 -14 11
14 28 17 10 31 27 31 37 0 13 5 17 15 14 19 -8 66 48 58 69 -6 16 -43 34 -69
34 -8 0 -14 -9 -14 -20 0 -23 -17 -25 -42 -6 -24 18 -23 23 10 29 15 3 37 14
50 24 50 40 89 79 95 96 4 10 17 17 34 17 26 1 27 2 10 14 -14 11 -15 15 -5
19 7 3 1 6 -13 6 -18 1 -29 -6 -37 -23 -6 -14 -23 -27 -41 -31 -16 -3 -32 -13
-35 -21 -4 -10 -17 -14 -40 -12 -21 1 -40 -4 -50 -15 -10 -9 -14 -17 -10 -17
14 0 -30 -35 -73 -60 -24 -13 -43 -27 -43 -32 0 -4 -11 -8 -24 -8 -13 0 -26
-3 -28 -7 -5 -13 -68 -43 -89 -43 -11 0 -17 -4 -14 -10 4 -6 -8 -10 -30 -10
-50 0 -71 -14 -78 -50 -5 -21 -12 -30 -27 -30 -11 0 -20 -4 -20 -10 0 -5 5
-10 10 -10 6 0 10 -7 10 -16 0 -9 6 -14 12 -11 7 2 12 10 10 16 -1 6 5 11 14
11 18 0 117 51 122 63 2 4 10 7 17 7 7 0 15 5 17 11 2 6 18 12 36 14 18 1 44
12 57 25 22 21 25 21 31 6 4 -9 13 -15 20 -12 8 3 14 1 14 -4 0 -14 -24 -12
-39 3 -11 10 -12 7 -6 -13 4 -16 3 -20 -3 -12 -9 13 -42 6 -42 -9 0 -5 -14 -9
-31 -9 -20 0 -29 -4 -27 -12 5 -14 -13 -27 -82 -58 -80 -36 -95 -46 -96 -58
-1 -7 -2 -30 -3 -52 0 -22 -5 -40 -11 -40 -5 0 -10 6 -10 14 0 8 -6 16 -14 19
-20 8 -27 47 -10 54 20 7 17 20 -6 26 -11 3 -20 12 -20 21 0 9 -4 16 -10 16
-13 0 -13 -23 1 -37 6 -6 9 -17 6 -25 -3 -9 -7 -7 -13 7 -4 11 -24 35 -43 53
-45 41 -73 67 -88 84 -26 29 -43 39 -43 27 0 -8 -4 -9 -13 0 -8 6 -12 23 -9
41 3 23 0 30 -12 30 -10 0 -13 6 -10 15 7 18 30 20 37 3 4 -8 6 -7 6 4 1 9 6
18 12 20 7 2 5 9 -5 17 -14 12 -16 11 -9 -5 6 -17 5 -18 -11 -4 -16 12 -19 12
-27 -3 -13 -22 -27 -22 -51 0 -16 14 -22 15 -40 4 -11 -7 -23 -10 -26 -6 -4 3
0 10 8 15 8 6 10 10 4 10 -5 0 -16 -6 -23 -12 -10 -11 -15 -10 -25 5 -7 9 -18
17 -25 17 -6 0 -11 5 -11 10 0 6 -10 10 -23 10 -13 0 -34 11 -47 25 -13 14
-33 25 -44 26 -12 0 -15 3 -9 6 7 2 13 10 13 17 0 8 13 13 32 14 18 0 38 8 45
17 6 10 16 14 22 11 13 -9 54 32 45 45 -3 6 2 10 12 9 11 -1 38 -2 62 -1 40 1
42 3 42 31 0 23 -4 30 -20 30 -38 0 -88 -28 -106 -59 -13 -22 -26 -31 -45 -31
-15 0 -32 -7 -39 -15 -7 -8 -21 -15 -31 -15 -11 0 -19 -4 -19 -10 0 -5 -8 -10
-17 -10 -15 0 -16 -2 -3 -10 11 -7 5 -10 -22 -10 -21 0 -38 4 -38 9 0 5 -13
11 -28 14 -28 6 -29 8 -30 66 0 43 3 61 14 65 8 3 14 16 14 30 0 14 5 28 10
31 6 3 10 17 10 31 0 14 4 23 9 20 5 -3 11 8 15 24 5 28 9 30 48 30 37 0 91
18 63 21 -5 0 -19 3 -30 5 -11 3 -29 7 -40 8 -11 1 -21 10 -23 19 -4 22 -18
22 -31 0 -10 -17 -10 -17 -11 0 0 11 -8 17 -25 17 -18 0 -25 -5 -25 -19 0 -10
-7 -21 -15 -25 -8 -3 -15 -14 -15 -25 0 -11 -5 -23 -10 -26 -5 -3 -10 -19 -10
-35 0 -15 -7 -30 -15 -34 -8 -3 -15 -18 -15 -33 -1 -27 -1 -27 -15 -9 -14 19
-65 33 -157 43 -39 4 -48 9 -48 24 0 21 16 26 23 7 3 -7 6 -4 6 6 1 20 1 20
16 0 13 -18 14 -16 14 21 0 31 -2 35 -9 20 -7 -19 -8 -19 -18 5 -8 21 -6 26
12 31 21 5 20 5 -3 11 -12 4 -20 11 -17 17 4 5 1 13 -6 17 -17 11 -71 12 -84
2 -14 -10 -6 -48 10 -48 7 0 10 -28 9 -90 l-2 -90 39 0 c21 0 42 -5 45 -10 4
-6 14 -9 22 -8 25 5 27 -19 3 -27 -14 -4 -28 -1 -39 9 -10 9 -34 16 -54 16
-36 0 -37 1 -37 40 0 37 -25 108 -43 121 -5 4 -7 26 -5 50 3 39 1 44 -17 42
-11 -1 -94 -3 -185 -3 -91 0 -187 -4 -215 -7 -49 -7 -49 -7 -15 -13 22 -4 34
-11 32 -19 -2 -9 3 -11 15 -6 65 27 109 28 282 11 38 -4 57 -2 63 7 5 8 10 0
14 -21 4 -18 11 -35 15 -38 5 -3 9 -34 9 -69 0 -49 -4 -64 -16 -69 -9 -4 -19
-4 -22 -1 -3 3 0 5 6 5 14 0 15 114 2 145 -6 13 -9 15 -9 5 -1 -10 -4 -11 -9
-4 -8 13 -172 -4 -172 -18 0 -4 -9 -8 -21 -8 -15 0 -19 4 -15 16 5 14 -9 16
-121 15 -71 0 -146 1 -168 3 -22 2 -48 4 -58 5 -10 0 -16 4 -14 9 3 4 -50 8
-117 8 -101 1 -109 0 -51 -5 39 -4 62 -8 51 -9 -13 -1 -17 -8 -13 -22 3 -10
-1 -24 -9 -31 -26 -21 -15 -29 40 -29 30 0 67 -5 83 -11 15 -5 25 -7 21 -3
-14 13 18 31 78 42 34 7 70 10 80 6 15 -5 16 -4 4 5 -12 8 -12 11 3 17 21 8
50 -2 43 -15 -8 -12 201 -25 266 -15 44 6 49 9 28 15 -22 6 -21 7 10 8 19 0
42 -4 50 -9 13 -9 11 -14 -10 -33 -45 -39 -54 -55 -40 -72 11 -13 8 -15 -14
-15 -14 0 -26 5 -26 10 0 6 -11 10 -24 10 -14 0 -28 -4 -31 -10 -4 -6 -58 -10
-128 -11 -116 0 -289 -11 -404 -24 -35 -5 -53 -3 -53 4 0 6 18 11 40 11 22 0
40 5 40 10 0 6 -18 10 -39 10 -22 0 -43 -4 -46 -10 -3 -5 -15 -10 -26 -10 -16
0 -18 3 -9 19 9 18 7 19 -28 10 -66 -17 -69 -20 -44 -30 13 -5 28 -6 34 -3 5
3 15 -2 23 -12 12 -16 11 -20 -3 -26 -22 -8 -135 -10 -156 -2 -18 7 -23 64 -6
64 6 0 10 6 10 13 0 19 35 49 45 40 4 -5 5 -2 1 5 -14 24 -44 12 -62 -25 -15
-31 -19 -34 -22 -18 -2 11 -9 23 -14 26 -5 3 -10 20 -10 37 -1 24 -6 32 -20
32 -10 0 -18 7 -18 16 0 8 -3 13 -8 10 -4 -2 -25 4 -47 14 -46 22 -54 13 -30
-35 9 -20 13 -40 10 -45 -4 -6 1 -7 11 -3 13 5 15 2 9 -15 -5 -16 -2 -22 9
-22 20 0 20 -23 0 -66 -9 -18 -14 -39 -11 -46 2 -7 8 -1 12 15 8 30 22 35 31
12 4 -8 10 -12 15 -9 5 3 4 14 -2 25 -6 11 -12 29 -14 39 -4 19 -2 19 21 4 13
-9 24 -25 24 -35 0 -11 5 -19 10 -19 6 0 10 -9 10 -20 0 -13 -7 -20 -18 -20
-10 0 -23 -5 -30 -12 -9 -9 -12 -9 -12 0 0 18 -24 14 -48 -8 -29 -28 -59 -25
-87 8 -24 26 -35 69 -15 57 6 -3 10 -15 10 -26 0 -10 5 -19 11 -19 6 0 17 -7
26 -15 11 -12 18 -13 28 -5 16 14 9 40 -11 40 -8 0 -14 10 -14 25 0 15 6 25
14 25 9 0 12 7 9 20 -7 26 -19 25 -27 -2 l-7 -23 -16 23 c-8 12 -22 22 -29 22
-8 0 -14 4 -14 9 0 10 -30 24 -37 17 -3 -3 4 -15 16 -27 12 -13 21 -33 21 -46
0 -20 -2 -22 -19 -12 -10 7 -26 27 -36 46 -18 32 -18 34 1 47 20 15 71 13 88
-4 16 -16 22 -12 20 18 -3 46 -4 48 -24 23 -11 -13 -20 -19 -20 -14 0 15 -40
53 -56 53 -10 0 -13 -7 -8 -25 6 -26 -5 -43 -45 -64 -20 -11 -22 -18 -18 -47
3 -19 15 -48 27 -64 l21 -30 -23 -1 c-23 -1 -23 -1 2 -9 17 -5 19 -8 8 -9 -10
-1 -18 -6 -18 -12 0 -7 -16 -9 -47 -4 -112 16 -181 45 -125 53 22 3 21 5 -11
22 -25 14 -43 17 -63 11 l-29 -8 35 -11 c20 -6 26 -10 15 -11 -11 0 -31 6 -45
13 l-25 14 35 10 35 9 -30 12 c-24 10 -31 10 -41 -3 -12 -18 -44 -22 -44 -6 0
6 -7 10 -16 10 -9 0 -27 11 -40 25 -13 14 -38 28 -56 31 l-33 5 28 -18 c15
-10 27 -23 27 -29 0 -7 3 -14 8 -16 12 -5 42 -68 32 -68 -6 0 -10 -10 -10 -23
0 -18 5 -23 28 -22 21 0 28 -5 30 -22 2 -13 -2 -23 -8 -23 -6 0 -9 4 -6 9 3 5
-8 7 -24 6 -17 -1 -33 1 -35 6 -3 4 -14 6 -25 4 -13 -2 -20 2 -20 11 0 8 -6
14 -12 14 -7 0 -24 3 -38 6 -21 6 -23 4 -12 -7 6 -7 12 -17 12 -21 0 -12 -38
-10 -45 2 -7 12 -45 14 -45 2 0 -4 5 -13 12 -20 20 -20 -10 -15 -64 11 -26 12
-48 28 -48 35 0 6 -5 12 -10 12 -11 0 -19 5 -61 42 -23 21 -48 75 -29 63 4 -3
25 4 47 14 62 31 129 61 136 61 4 0 25 11 47 25 22 14 51 25 65 25 14 0 25 5
25 10 0 6 11 10 24 10 14 0 28 5 31 10 3 6 15 10 26 10 27 0 118 30 125 41 3
5 20 9 39 9 19 0 37 5 40 10 4 7 -67 10 -207 10 -190 -1 -211 -2 -194 -15z
m1350 -88 c9 -35 8 -36 -39 -33 -50 3 -79 21 -56 35 7 5 11 13 8 17 -3 5 14 7
38 6 34 -3 44 -8 49 -25z m316 -7 c0 -5 -21 -9 -47 -9 -47 2 -47 2 -13 9 52
11 60 11 60 0z m-810 -65 c0 -8 -4 -15 -10 -15 -5 0 -10 7 -10 15 0 8 5 15 10
15 6 0 10 -7 10 -15z m1330 -36 c0 -5 16 -9 35 -9 29 0 36 -4 41 -26 5 -19 9
-22 15 -13 6 11 9 10 15 -4 13 -34 -3 -47 -53 -46 -44 1 -46 1 -20 11 15 5 27
14 27 19 0 6 -4 8 -9 5 -5 -4 -11 -2 -13 4 -2 6 -22 11 -46 13 -29 1 -41 6
-37 15 3 8 -5 12 -23 12 -15 0 -33 4 -41 9 -11 7 -11 10 2 17 20 11 107 5 107
-7z m-2410 1 c0 -5 -4 -10 -10 -10 -5 0 -10 5 -10 10 0 6 5 10 10 10 6 0 10
-4 10 -10z m-330 -111 c14 -4 18 -8 8 -8 -9 -1 -23 -3 -31 -6 -7 -3 -25 3 -38
15 l-24 20 30 -6 c17 -4 41 -11 55 -15z m1220 -15 c0 -20 -7 -17 -20 6 -9 16
-8 18 5 14 8 -4 15 -12 15 -20z m8 -33 c11 -6 10 -9 -5 -13 -22 -6 -43 0 -43
13 0 11 31 12 48 0z m402 -32 c0 -5 -7 -9 -15 -9 -15 0 -20 12 -9 23 8 8 24
-1 24 -14z m-950 -3 c0 -8 -8 -17 -17 -20 -18 -5 46 -2 144 8 53 5 81 -7 42
-17 -12 -3 -18 -10 -14 -16 3 -7 -2 -11 -13 -11 -15 0 -19 -5 -15 -20 6 -21
-20 -29 -32 -10 -3 6 -19 10 -35 10 -16 0 -43 8 -62 17 -60 30 -68 33 -83 33
-8 0 -15 5 -15 11 0 6 8 8 19 4 10 -3 24 1 31 10 16 19 50 20 50 1z m1170 4
c0 -6 -10 -21 -21 -33 -12 -12 -19 -15 -15 -7 3 8 9 23 12 33 7 18 24 24 24 7z
m320 -6 c0 -2 -7 -4 -15 -4 -8 0 -15 4 -15 10 0 5 7 7 15 4 8 -4 15 -8 15 -10z
m-1242 -44 c28 -23 22 -39 -12 -33 -13 3 -27 0 -30 -6 -4 -6 -18 -11 -32 -11
-19 0 -25 5 -22 18 2 9 11 16 21 16 9 -1 14 2 11 7 -3 5 2 9 11 9 9 0 13 5 10
10 -11 17 19 10 43 -10z m1273 7 c-1 -12 -15 -9 -19 4 -3 6 1 10 8 8 6 -3 11
-8 11 -12z m54 -37 c3 -5 1 -10 -4 -10 -6 0 -11 5 -11 10 0 6 2 10 4 10 3 0 8
-4 11 -10z m-655 -10 c0 -5 -5 -10 -11 -10 -5 0 -7 5 -4 10 3 6 8 10 11 10 2
0 4 -4 4 -10z m-70 -20 c0 -5 -5 -10 -11 -10 -5 0 -7 5 -4 10 3 6 8 10 11 10
2 0 4 -4 4 -10z m1800 -45 c0 -8 -9 -15 -20 -15 -11 0 -20 7 -20 15 0 8 9 15
20 15 11 0 20 -7 20 -15z m-1073 -27 c-3 -8 -6 -5 -6 6 -1 11 2 17 5 13 3 -3
4 -12 1 -19z m1117 -30 c-11 -17 -24 -6 -24 19 0 26 1 26 14 8 8 -11 12 -23
10 -27z m726 0 c0 -5 -9 -8 -20 -8 -11 0 -20 -4 -20 -10 0 -5 -9 -10 -20 -10
-27 0 -26 17 2 26 20 6 20 7 3 17 -19 10 -19 10 0 17 18 6 55 -15 55 -32z
m-1620 -99 c0 -6 -4 -7 -10 -4 -5 3 -10 11 -10 16 0 6 5 7 10 4 6 -3 10 -11
10 -16z m1470 11 c0 -5 -4 -10 -10 -10 -5 0 -10 5 -10 10 0 6 5 10 10 10 6 0
10 -4 10 -10z m-3675 -34 c17 -12 15 -14 -19 -20 -45 -9 -57 -1 -30 19 24 18
26 18 49 1z m3685 -10 c0 -3 -4 -8 -10 -11 -5 -3 -10 -1 -10 4 0 6 5 11 10 11
6 0 10 -2 10 -4z m114 -5 c8 -13 -3 -19 -24 -14 -11 3 -17 9 -14 14 7 11 31
12 38 0z m-3874 -19 c0 -7 -69 -32 -90 -32 -19 0 -10 21 13 30 27 11 77 13 77
2z m2143 -4 c3 -10 9 -10 27 1 20 11 24 11 33 -5 9 -16 10 -16 23 0 10 14 16
15 33 6 14 -7 21 -7 21 0 0 5 9 10 20 10 11 0 20 -4 20 -8 0 -5 11 -14 25 -20
14 -6 25 -17 25 -24 0 -7 11 -22 25 -32 14 -10 25 -25 25 -33 0 -9 14 -32 30
-53 17 -21 30 -42 30 -47 0 -4 11 -20 24 -34 13 -14 29 -43 37 -65 7 -21 19
-48 26 -59 18 -27 16 -35 -6 -35 -11 0 -21 -3 -23 -7 -5 -12 -67 -43 -85 -43
-8 0 -34 -13 -58 -30 -24 -16 -48 -30 -53 -30 -5 0 -18 -11 -28 -25 -23 -30
-34 -32 -34 -5 0 11 -4 28 -9 38 -15 29 -41 127 -41 155 0 15 -4 27 -10 27 -5
0 -10 11 -10 25 0 14 -4 33 -9 43 -6 9 -17 48 -27 85 -9 37 -21 70 -26 73 -4
3 -8 18 -8 34 0 16 -4 32 -10 35 -13 8 -13 35 -1 35 5 0 11 -6 14 -12z m1567
2 c0 -5 -12 -10 -26 -10 -14 0 -23 4 -19 10 3 6 15 10 26 10 10 0 19 -4 19
-10z m-1023 -26 c9 4 17 -1 20 -13 2 -10 17 -28 33 -40 16 -11 43 -47 60 -80
22 -41 39 -61 54 -63 11 -2 22 -7 22 -13 2 -20 29 -75 36 -75 4 0 8 -11 8 -25
0 -15 6 -25 14 -25 20 0 45 -32 29 -37 -21 -7 -15 -33 8 -33 11 0 18 -4 15 -9
-6 -9 -84 14 -101 30 -5 5 -28 9 -52 9 -37 0 -45 4 -53 26 -6 14 -10 37 -10
51 0 14 -7 39 -16 56 -32 60 -34 67 -34 91 0 13 -7 29 -15 36 -8 7 -15 19 -15
26 0 8 -4 14 -10 14 -5 0 -10 10 -10 23 0 13 -5 28 -11 34 -7 7 -8 19 -4 30 8
17 8 17 12 0 3 -12 10 -16 20 -13z m-1730 -36 c-3 -7 -5 -2 -5 12 0 14 2 19 5
13 2 -7 2 -19 0 -25z m2573 -28 c0 -5 -2 -10 -4 -10 -3 0 -8 5 -11 10 -3 6 -1
10 4 10 6 0 11 -4 11 -10z m490 -50 c0 -5 -4 -10 -10 -10 -5 0 -10 5 -10 10 0
6 5 10 10 10 6 0 10 -4 10 -10z m-250 -20 c-20 -13 -57 -13 -65 0 -4 6 11 10
37 10 31 0 39 -3 28 -10z m51 -140 c31 -17 22 -30 -19 -30 -48 0 -59 9 -29 26
29 16 25 16 48 4z m-2100 -99 c-6 -10 -7 -21 -4 -25 3 -3 1 -6 -5 -6 -7 0 -12
-10 -13 -22 0 -22 -1 -22 -8 -3 -5 11 -4 22 0 23 5 2 9 12 9 21 0 19 8 31 22
31 5 0 4 -8 -1 -19z m-716 -86 c4 -31 11 -58 16 -61 5 -3 9 -38 9 -77 l0 -72
-39 -27 c-22 -16 -44 -28 -50 -28 -6 0 -11 -4 -11 -10 0 -5 -7 -10 -15 -10 -9
0 -18 -7 -21 -15 -4 -8 -12 -15 -20 -15 -8 0 -14 -4 -14 -10 0 -14 -18 -12
-23 3 -2 6 -2 2 0 -10 2 -13 -1 -23 -7 -23 -7 0 -9 19 -6 53 3 28 5 52 6 52 1
0 2 38 3 85 2 91 21 150 48 150 8 0 25 14 38 31 22 29 59 51 73 43 4 -3 10
-29 13 -59z m1365 -95 c0 -5 -7 -10 -15 -10 -8 0 -15 5 -15 10 0 6 7 10 15 10
8 0 15 -4 15 -10z m1888 -14 c22 -11 22 -14 7 -26 -15 -12 -19 -12 -29 1 -6 9
-20 21 -31 27 -19 11 -19 11 5 11 14 0 35 -5 48 -13z m-3718 -941 c0 -8 -2
-15 -4 -15 -2 0 -6 7 -10 15 -3 8 -1 15 4 15 6 0 10 -7 10 -15z m3170 -26 c0
-11 -4 -17 -10 -14 -5 3 -10 15 -10 26 0 11 5 17 10 14 6 -3 10 -15 10 -26z
m24 -278 c8 -13 -4 -42 -15 -35 -12 7 -12 44 0 44 6 0 12 -4 15 -9z m36 -226
c7 -33 16 -68 21 -77 13 -25 11 -108 -2 -108 -6 0 -23 -9 -39 -20 -15 -11 -30
-17 -34 -13 -9 10 -7 58 3 68 5 6 10 46 11 90 1 44 5 107 8 140 6 60 6 60 13
20 4 -22 12 -67 19 -100z m-279 68 c-8 -15 -10 -15 -11 -2 0 17 10 32 18 25 2
-3 -1 -13 -7 -23z m-101 -78 c0 -8 -4 -15 -10 -15 -5 0 -10 7 -10 15 0 8 5 15
10 15 6 0 10 -7 10 -15z m-2820 -16 c19 -12 55 -41 78 -65 24 -24 48 -44 53
-44 5 0 9 -15 9 -34 0 -19 5 -36 12 -38 8 -3 9 -11 3 -24 -5 -10 -9 -38 -10
-62 -2 -36 -9 -50 -44 -84 -35 -35 -41 -47 -41 -83 0 -26 6 -48 15 -55 8 -7
15 -19 15 -27 0 -14 7 -24 50 -73 22 -24 35 -29 90 -33 152 -12 230 -38 230
-77 0 -13 -14 -17 -72 -20 -40 -1 -82 -2 -93 -2 -38 0 -114 23 -126 38 -6 8
-18 14 -27 14 -8 0 -30 11 -48 25 -18 14 -40 25 -49 25 -9 0 -13 5 -10 10 3 6
-4 14 -18 19 -25 10 -107 82 -107 95 0 4 -11 17 -25 30 -14 13 -25 30 -25 39
0 9 -4 19 -10 22 -5 3 -10 14 -10 24 0 9 -5 22 -12 29 -35 35 -54 235 -25 284
46 81 128 109 197 67z m-450 -9 c0 -5 -4 -10 -9 -10 -6 0 -13 5 -16 10 -3 6 1
10 9 10 9 0 16 -4 16 -10z m3240 -30 c0 -16 -4 -30 -10 -30 -11 0 -14 43 -3
53 11 12 13 8 13 -23z m-3109 8 c0 -10 2 -10 6 0 9 22 32 13 35 -15 4 -37 28
-42 28 -6 1 24 2 26 11 10 8 -14 7 -23 -8 -39 -15 -17 -18 -36 -17 -109 0 -49
-3 -89 -8 -89 -4 0 -8 9 -8 20 0 11 -4 20 -10 20 -5 0 -10 -9 -10 -20 0 -11 4
-20 9 -20 5 0 12 -18 16 -40 4 -22 11 -40 16 -40 5 0 9 -9 9 -20 0 -11 5 -20
10 -20 6 0 10 12 10 27 0 21 3 24 12 15 10 -10 10 -17 0 -32 -15 -24 -16 -60
-2 -60 6 0 10 9 10 21 0 11 5 17 10 14 18 -11 10 -43 -12 -51 -19 -6 -15 -8
21 -11 43 -4 71 -21 71 -42 0 -6 -4 -11 -10 -11 -5 0 -10 6 -10 14 0 9 -17 16
-47 20 -118 17 -180 48 -142 72 6 3 8 17 5 30 -4 16 -2 24 6 24 9 0 8 3 -2 10
-10 6 -11 10 -2 10 7 0 12 13 11 33 0 17 -3 26 -6 18 -5 -11 -7 -11 -14 0 -6
10 -9 8 -9 -8 0 -33 -19 -38 -30 -9 -6 16 -17 26 -30 26 -13 0 -20 7 -20 20 0
15 -7 20 -26 20 -15 0 -23 -4 -19 -10 5 -7 -9 -10 -39 -8 -25 2 -48 9 -51 16
-2 6 -14 12 -25 12 -13 0 -20 7 -20 19 0 28 20 37 27 13 3 -13 11 -18 19 -15
8 3 11 10 7 16 -4 7 6 8 31 4 22 -3 34 -2 31 4 -4 5 -1 9 6 9 7 0 10 3 7 6 -3
3 5 17 18 31 22 24 23 28 9 49 -20 31 -19 34 10 34 16 0 25 -6 25 -15 0 -8 4
-15 9 -15 5 0 14 7 21 15 7 8 21 15 31 15 23 0 25 18 3 27 -10 4 -22 -1 -30
-12 -11 -15 -16 -16 -29 -5 -8 7 -15 19 -15 26 0 19 100 20 101 2z m3081 -70
c-9 -9 -12 -7 -12 12 0 19 3 21 12 12 9 -9 9 -15 0 -24z m448 -120 c0 -4 -5
-8 -11 -8 -7 0 -8 -11 -3 -32 7 -32 8 -49 5 -111 -1 -25 -4 -27 -31 -22 -22 4
-30 1 -30 -9 0 -8 8 -17 18 -19 13 -4 11 -5 -5 -6 -13 0 -23 3 -23 9 0 6 -9 6
-26 0 -14 -6 -32 -10 -41 -10 -13 0 -13 2 -2 16 11 14 11 18 -4 29 -22 16 -21
27 4 48 11 10 25 31 31 47 5 17 14 30 19 30 5 0 9 7 9 16 0 8 5 12 10 9 6 -3
10 -19 10 -36 0 -16 5 -29 10 -29 6 0 15 -10 20 -22 8 -22 9 -22 9 4 1 15 -4
30 -9 33 -6 3 -7 17 -4 30 4 16 0 26 -12 33 -15 8 -11 10 19 9 20 0 37 -5 37
-9z m-3451 -105 c0 -25 -1 -26 -9 -8 -12 27 -12 35 0 35 6 0 10 -12 9 -27z
m477 -37 c8 -8 14 -21 14 -28 0 -7 7 -22 15 -32 8 -11 15 -27 15 -37 0 -9 9
-19 21 -22 12 -3 18 -10 14 -16 -8 -15 -31 -14 -47 2 -8 6 -23 17 -33 23 -36
20 -61 88 -41 111 14 16 24 16 42 -1z m2792 -51 c-4 -19 -1 -25 13 -25 12 0
16 -5 13 -15 -5 -12 -8 -13 -20 0 -8 7 -23 17 -35 20 -12 4 -18 13 -15 20 3 8
0 16 -7 19 -7 2 3 5 22 5 30 1 33 -1 29 -24z m-48 -41 c0 -10 7 -13 24 -8 21
5 24 3 19 -15 -3 -12 -12 -21 -20 -21 -8 0 -11 5 -8 10 3 6 -4 10 -18 10 -34
0 -54 25 -30 38 21 12 33 7 33 -14z m150 6 c0 -13 -20 -13 -40 0 -12 8 -9 10
13 10 15 0 27 -4 27 -10z m-210 -20 c0 -5 -11 -10 -25 -10 -14 0 -25 5 -25 10
0 6 11 10 25 10 14 0 25 -4 25 -10z m322 -20 c-8 -76 5 -70 -172 -70 -152 0
-160 1 -160 19 0 17 5 19 35 14 23 -4 35 -2 35 6 0 8 5 8 19 -1 19 -11 21 -10
66 30 7 6 29 12 49 12 19 0 38 5 41 11 4 5 26 9 48 7 38 -3 42 -5 39 -28z
m-388 -5 c8 -8 21 -15 28 -16 7 0 4 -4 -7 -9 -30 -13 -38 -12 -31 5 7 19 -18
20 -34 1 -6 -8 -28 -16 -48 -18 -23 -2 -36 -8 -34 -15 1 -8 -8 -13 -24 -13
-14 0 -23 -4 -19 -10 9 -14 42 -12 68 4 42 27 84 29 106 7 15 -15 34 -21 66
-21 31 0 47 -5 51 -15 8 -20 24 -19 24 1 0 9 6 14 13 11 6 -2 11 -11 9 -21 -4
-23 25 -20 31 4 3 14 14 20 31 20 27 0 36 -15 14 -23 -7 -2 -9 -8 -5 -13 4 -5
11 -3 16 4 4 7 26 14 48 16 35 3 42 1 49 -18 13 -38 10 -51 -13 -75 -21 -22
-28 -23 -100 -19 -43 3 -88 2 -101 -3 -17 -6 -26 -4 -38 9 -13 15 -22 16 -69
8 -30 -6 -55 -13 -55 -17 0 -3 23 -7 52 -8 28 0 53 -3 55 -5 10 -10 -312 -4
-331 6 -19 10 -18 11 10 26 18 10 24 17 16 20 -8 2 -27 -5 -43 -17 -31 -23
-134 -32 -112 -10 6 6 30 10 52 7 23 -2 41 0 41 4 0 5 -4 8 -10 8 -5 0 -10 7
-10 15 0 8 -9 15 -20 15 -10 0 -24 9 -30 21 -15 27 -7 34 19 18 30 -19 38 -3
10 20 -23 19 -13 22 23 7 18 -8 58 9 58 24 0 5 8 7 18 5 10 -2 25 0 32 5 9 6
7 10 -9 15 -21 6 -29 25 -11 25 6 0 10 -4 10 -10 0 -5 18 -10 40 -10 22 0 40
5 40 10 0 6 14 10 31 10 17 0 37 7 45 15 9 8 19 15 24 15 5 0 15 -7 24 -15z
m-3314 -74 c3 -1 -2 -5 -10 -11 -20 -12 -6 -23 19 -15 12 4 18 12 14 21 -3 7
0 14 6 14 6 0 11 -10 11 -21 0 -18 5 -20 28 -17 15 3 35 8 44 12 15 7 16 5 5
-18 -7 -15 -27 -32 -44 -38 -39 -14 -44 -30 -8 -25 28 3 75 44 75 65 0 12 4
12 25 -2 13 -9 34 -16 45 -16 13 0 18 -4 15 -11 -4 -6 -24 -9 -45 -8 -36 3
-70 -16 -70 -39 0 -15 -28 -22 -34 -9 -2 7 -5 5 -5 -4 -1 -9 -12 -20 -25 -23
-26 -6 -76 11 -76 26 0 12 -38 48 -51 48 -5 0 -7 -5 -3 -11 3 -6 0 -15 -7 -20
-22 -14 -96 -10 -111 5 -8 8 -23 15 -33 17 -10 2 -20 9 -22 15 -6 17 27 26 44
13 11 -9 16 -8 27 6 10 14 17 16 32 7 16 -10 17 -11 2 -12 -36 0 -28 -20 8
-20 29 0 35 3 27 11 -9 9 -6 17 12 30 13 11 30 19 38 19 9 0 18 4 21 9 4 5 14
8 24 6 9 -2 19 -4 22 -4z m-337 -45 c22 -17 22 -26 -3 -26 -11 0 -20 5 -20 10
0 6 -7 10 -15 10 -8 0 -15 5 -15 10 0 14 32 12 53 -4z m625 8 c12 -4 22 -13
22 -20 0 -22 31 -16 37 6 6 21 18 26 27 11 4 -5 0 -11 -6 -14 -7 -2 -10 -8 -6
-12 4 -4 15 -2 25 6 11 9 14 10 9 2 -5 -9 -1 -13 10 -13 21 0 11 -13 -14 -17
-75 -13 -95 -14 -126 -3 -34 11 -38 20 -27 58 2 4 25 2 49 -4z m149 -9 c0 -8
-6 -15 -14 -15 -7 0 -13 7 -13 15 0 8 6 15 13 15 8 0 14 -7 14 -15z m-707 -47
c0 -4 11 -8 24 -8 13 0 26 -5 28 -11 6 -18 138 -15 138 3 0 4 7 8 16 8 8 0 13
-4 9 -9 -3 -5 5 -17 17 -25 17 -12 20 -18 10 -28 -9 -9 -12 -9 -12 0 0 8 -17
12 -47 12 -32 0 -43 -3 -34 -9 11 -7 4 -12 -25 -20 -49 -14 -84 -14 -84 -1 0
5 15 14 33 19 23 6 26 10 12 11 -26 3 -26 3 -49 -6 -16 -6 -18 -4 -14 14 4 14
2 20 -4 15 -6 -3 -16 1 -22 9 -6 8 -19 17 -29 21 -15 6 -16 10 -5 27 12 19 14
19 26 3 6 -9 12 -20 12 -25z m3220 6 c0 -9 -28 -34 -38 -34 -6 0 -8 9 -5 20 5
17 43 30 43 14z m-2502 -14 c30 -1 34 -2 19 -11 -24 -14 -79 -7 -85 10 -3 10
0 12 12 8 10 -4 34 -7 54 -7z m102 -10 c0 -5 -11 -10 -24 -10 -14 0 -28 5 -31
10 -4 6 7 10 24 10 17 0 31 -4 31 -10z m-25 -50 c190 -29 198 -32 202 -58 2
-19 0 -22 -16 -17 -11 3 -22 2 -25 -3 -7 -11 -56 -3 -56 9 0 5 -15 9 -32 8
-18 0 -27 -3 -20 -6 6 -2 10 -8 8 -12 -7 -10 -66 -1 -66 10 0 5 -5 9 -11 9 -6
0 -9 -7 -6 -15 4 -8 2 -17 -3 -20 -6 -4 -10 -2 -10 3 0 19 -62 35 -140 35 -48
0 -77 4 -73 10 4 6 -9 8 -33 4 -21 -4 -48 -7 -59 -8 -17 -1 -16 -2 5 -9 l25
-8 -28 -1 c-15 -1 -44 -8 -64 -16 -19 -8 -43 -15 -53 -15 -10 0 -21 -7 -24
-16 -8 -22 1 -31 16 -16 15 15 78 16 78 2 0 -5 -4 -10 -9 -10 -5 0 -12 -13
-16 -29 -5 -26 -10 -29 -38 -25 -94 12 -177 29 -177 36 0 4 5 8 10 8 6 0 10 6
10 13 0 8 11 20 25 27 14 7 25 17 25 22 0 11 -28 10 -35 -2 -3 -5 -15 -10 -26
-10 -10 0 -19 -4 -19 -9 0 -4 -21 -11 -46 -14 -36 -4 -50 -1 -64 13 -29 29
-16 37 85 51 33 5 76 11 95 13 25 4 31 3 20 -4 -13 -9 -13 -11 -1 -19 14 -9
21 -6 66 37 13 12 27 22 30 22 7 0 30 18 51 41 14 14 29 14 147 1 73 -7 186
-22 252 -32z m78 23 c-7 -2 -21 -2 -30 0 -10 3 -4 5 12 5 17 0 24 -2 18 -5z
m2360 -34 c42 -1 77 -5 77 -8 0 -4 14 -15 30 -24 33 -20 39 -41 14 -51 -26
-10 -109 -7 -121 5 -6 6 -26 15 -45 19 -33 8 -33 8 -4 9 24 1 27 3 16 16 -13
16 -45 21 -36 6 3 -5 -3 -11 -14 -14 -16 -4 -20 0 -20 17 0 24 9 38 20 31 3
-2 41 -5 83 -6z m695 -39 c-2 -20 -9 -24 -33 -25 -19 0 -29 -5 -27 -12 4 -22
-95 -16 -128 7 -23 16 -37 19 -69 14 -25 -4 -41 -12 -41 -20 0 -8 -5 -14 -11
-14 -5 0 -7 5 -4 10 4 6 -15 10 -49 10 -30 0 -58 5 -61 10 -4 6 27 10 84 10
66 0 90 3 89 12 -4 17 47 24 160 24 l93 -1 -3 -25z m-2803 11 c6 -11 -22 -19
-47 -13 -10 2 -18 8 -18 13 0 12 57 12 65 0z m77 -8 c22 -20 23 -33 3 -33 -8
0 -15 7 -15 16 0 12 -6 15 -20 10 -24 -7 -60 -15 -42 -9 6 3 12 11 12 19 0 19
39 18 62 -3z m63 7 c3 -5 -1 -10 -9 -10 -9 0 -16 5 -16 10 0 6 4 10 9 10 6 0
13 -4 16 -10z m2208 -37 c-7 -2 -21 -2 -30 0 -10 3 -4 5 12 5 17 0 24 -2 18
-5z m-2803 -13 c0 -5 -12 -10 -27 -10 -22 0 -25 2 -13 10 20 13 40 13 40 0z
m692 -23 c38 -18 44 -24 32 -35 -11 -10 -16 -9 -26 8 -11 17 -23 20 -95 20
-46 0 -83 -4 -83 -9 0 -13 27 -21 73 -21 28 0 38 -3 31 -10 -11 -11 -33 -13
-122 -10 -36 2 -58 -3 -70 -14 -13 -11 -29 -14 -55 -9 -30 4 -37 3 -37 -11 0
-8 -11 -18 -24 -22 -14 -3 -27 -12 -30 -20 -3 -8 -16 -14 -28 -14 -19 0 -20 2
-8 10 8 5 11 10 5 10 -13 0 -71 -50 -68 -60 1 -4 -26 -13 -60 -19 -34 -7 -75
-14 -90 -17 -15 -3 -45 -23 -66 -45 -43 -45 -104 -70 -99 -41 3 20 22 42 36
42 4 0 19 11 32 25 13 14 28 25 33 25 5 0 17 8 26 18 26 29 64 49 104 56 20 3
53 9 72 12 19 3 35 10 35 15 0 5 11 9 25 9 14 0 25 3 25 8 0 8 49 32 67 32 7
0 13 6 13 14 0 8 11 17 25 20 14 4 25 11 25 16 0 6 14 10 30 10 17 0 30 4 30
10 0 5 39 11 88 13 48 1 92 4 97 5 6 1 31 -9 57 -21z m-816 6 c-10 -11 -77
-13 -71 -3 4 6 22 10 42 10 20 0 33 -3 29 -7z m204 -3 c0 -5 -17 -9 -37 -9
l-38 2 35 7 c19 4 36 8 38 9 1 0 2 -3 2 -9z m140 0 c11 -7 7 -10 -17 -10 -18
0 -33 5 -33 10 0 13 30 13 50 0z m3030 0 c0 -5 -4 -10 -10 -10 -5 0 -12 -16
-16 -35 -8 -45 -24 -56 -24 -17 0 25 -3 29 -20 25 -11 -3 -23 -16 -26 -29 -7
-26 -24 -33 -24 -9 0 18 -65 21 -76 4 -4 -8 -9 -7 -15 2 -12 21 -1 29 42 29
28 0 39 4 39 15 0 10 11 15 33 16 17 0 41 4 52 9 28 12 45 12 45 0z m-3305
-10 c8 -13 -5 -13 -25 0 -13 8 -13 10 2 10 9 0 20 -4 23 -10z m185 -10 c0 -5
-4 -10 -10 -10 -5 0 -10 5 -10 10 0 6 5 10 10 10 6 0 10 -4 10 -10z m2415 -7
c7 -19 -43 -16 -61 2 -14 13 -12 15 20 13 20 -2 38 -9 41 -15z m-3115 -35 c0
-19 -2 -20 -10 -8 -13 19 -13 30 0 30 6 0 10 -10 10 -22z m3180 12 c0 -5 -2
-10 -4 -10 -3 0 -8 5 -11 10 -3 6 -1 10 4 10 6 0 11 -4 11 -10z m-2611 -32
c11 -9 21 -14 24 -12 2 3 7 -3 11 -12 4 -12 2 -15 -9 -11 -8 4 -18 -1 -23 -10
-6 -9 -14 -13 -22 -8 -8 5 -9 10 -1 14 6 4 -21 7 -59 8 -40 1 -68 -3 -64 -8 3
-5 -14 -9 -36 -9 -33 0 -41 -3 -37 -15 8 -20 -10 -29 -20 -11 -7 13 -14 12
-51 -6 -45 -23 -54 -38 -23 -38 11 0 23 -4 26 -10 6 -9 2 -12 -27 -14 -7 -1
-22 -11 -35 -23 -26 -27 -43 -30 -43 -8 0 8 6 15 14 15 17 0 41 28 32 37 -3 4
-20 -3 -36 -15 -16 -12 -36 -22 -44 -22 -7 0 -24 -11 -37 -25 -13 -13 -30 -25
-36 -25 -15 0 -17 -16 -4 -24 5 -3 14 1 21 9 7 8 16 15 21 15 14 0 11 -28 -3
-34 -7 -3 -4 -4 8 -1 13 3 27 -2 39 -15 17 -18 17 -20 1 -20 -9 0 -14 5 -11
10 6 9 -51 15 -147 13 -26 0 -38 4 -38 14 0 8 5 11 10 8 6 -3 10 0 10 7 0 8
16 20 35 27 19 7 39 20 45 30 5 11 21 22 35 25 14 4 25 11 25 16 0 6 9 10 20
10 11 0 20 4 20 9 0 9 56 47 100 67 14 6 31 18 39 27 10 13 30 17 80 17 36 0
72 4 79 8 21 14 90 8 111 -10z m691 12 c0 -5 11 -10 24 -10 13 0 26 -7 30 -15
3 -8 13 -15 22 -15 10 0 32 -5 50 -12 25 -9 39 -9 59 0 15 7 25 8 25 2 0 -6
-8 -10 -17 -10 -17 -1 -17 -1 0 -11 11 -6 32 -9 48 -7 48 7 65 -40 21 -60 -29
-12 -93 -12 -85 1 6 10 -21 9 -32 -2 -6 -6 -30 -12 -55 -15 -38 -5 -40 -4 -12
3 51 13 47 18 -16 15 -74 -3 -74 -3 -68 -13 7 -10 -58 -4 -98 9 -16 6 -89 10
-162 10 -78 0 -135 4 -139 10 -3 6 -3 10 2 11 29 3 48 9 51 18 2 6 16 11 32
11 40 0 108 32 102 49 -4 11 4 12 39 6 52 -9 63 -9 112 0 30 6 37 5 37 -9 0
-12 9 -16 38 -15 32 0 34 1 15 9 -13 5 -23 14 -23 20 0 5 -7 10 -15 10 -8 0
-15 5 -15 10 0 6 7 10 15 10 8 0 15 -4 15 -10z m105 0 c-3 -5 -15 -10 -26 -10
-11 0 -17 5 -14 10 3 6 15 10 26 10 11 0 17 -4 14 -10z m2153 -8 c2 -7 -3 -10
-12 -6 -12 4 -16 0 -16 -15 0 -20 9 -25 36 -22 6 1 17 -6 24 -14 14 -16 55
-20 64 -6 3 5 -12 15 -35 23 -46 15 -52 31 -14 36 19 3 24 0 19 -12 -5 -12 0
-16 18 -16 13 0 29 -5 34 -10 7 -7 19 -7 35 -2 22 9 24 7 26 -22 l1 -31 -81 3
c-81 3 -114 12 -150 42 -9 8 -41 17 -70 20 -65 6 -60 26 6 24 26 -1 47 2 47 6
0 19 62 20 68 2z m-3528 -52 c10 -7 7 -54 -5 -62 -5 -4 -13 -4 -17 -2 -13 8
-9 44 5 45 10 0 10 2 0 6 -7 2 -13 17 -13 31 1 25 1 26 12 7 6 -11 14 -22 18
-25z m3690 30 c0 -5 -5 -10 -11 -10 -5 0 -7 5 -4 10 3 6 8 10 11 10 2 0 4 -4
4 -10z m60 -20 c0 -5 -4 -10 -10 -10 -5 0 -10 5 -10 10 0 6 5 10 10 10 6 0 10
-4 10 -10z m-3256 -31 c20 -9 29 -9 41 1 8 7 18 10 21 7 9 -9 -5 -27 -22 -27
-8 0 -14 -8 -14 -17 0 -12 -3 -14 -8 -6 -4 6 -20 15 -35 18 -27 7 -33 16 -20
28 8 9 8 9 37 -4z m-167 -41 c-3 -8 -6 -5 -6 6 -1 11 2 17 5 13 3 -3 4 -12 1
-19z m102 -14 c-17 -20 -39 -17 -39 5 0 23 20 32 38 18 9 -7 9 -13 1 -23z
m1221 9 c0 -18 22 -56 38 -66 18 -12 15 -25 -7 -32 -18 -6 -19 -7 -4 -25 9
-10 22 -16 29 -13 8 3 14 0 14 -6 0 -7 -7 -14 -15 -16 -47 -15 -50 -18 -16
-24 19 -3 36 -12 39 -19 3 -9 -4 -12 -20 -9 -34 5 -78 28 -78 41 -1 6 -8 -1
-16 -16 l-15 -28 -147 -1 c-81 0 -162 -2 -179 -3 -18 -2 -37 2 -43 10 -9 10
-15 9 -31 -7 -12 -12 -33 -19 -59 -19 -38 0 -52 12 -30 25 19 12 -1 25 -39 25
-44 0 -75 25 -46 36 9 4 20 1 24 -5 6 -9 77 -12 282 -10 226 1 279 4 301 17
l26 15 -23 19 c-13 10 -27 18 -32 18 -5 0 -17 10 -27 21 -18 21 -18 22 12 17
22 -3 29 -1 25 9 -3 7 0 13 6 13 6 0 11 7 11 15 0 8 -4 15 -10 15 -5 0 -10 4
-10 8 0 4 9 8 20 8 11 0 20 -6 20 -13z m1750 8 c0 -5 10 -11 23 -14 19 -3 20
-4 5 -11 -10 -5 -25 -6 -33 -2 -17 6 -21 36 -5 36 6 0 10 -4 10 -9z m492 -3
c-9 -9 -15 -9 -24 0 -9 9 -7 12 12 12 19 0 21 -3 12 -12z m-3392 -23 c0 -8 -4
-15 -9 -15 -13 0 -22 16 -14 24 11 11 23 6 23 -9z m2620 11 c0 -11 -19 -15
-25 -6 -3 5 1 10 9 10 9 0 16 -2 16 -4z m390 -30 c56 -7 109 -7 135 1 16 5 17
4 5 -8 -19 -18 -150 -25 -150 -8 0 7 -12 10 -30 7 -19 -3 -30 0 -30 7 0 16 13
27 19 16 3 -5 26 -11 51 -15z m-3500 -6 c0 -13 -7 -20 -20 -20 -25 0 -26 16
-2 29 23 14 22 14 22 -9z m1138 4 c44 -9 41 -24 -5 -24 -28 0 -34 3 -23 10 10
7 -20 10 -95 12 l-110 2 75 6 c74 7 93 6 158 -6z m2228 -21 c-3 -3 -12 2 -21
10 -13 14 -13 16 3 19 16 3 30 -18 18 -29z m-3021 17 c-3 -5 -10 -10 -16 -10
-5 0 -9 5 -9 10 0 6 7 10 16 10 8 0 12 -4 9 -10z m93 -4 c-7 -8 -15 -12 -17
-11 -5 6 10 25 20 25 5 0 4 -6 -3 -14z m1072 -12 c0 -2 -19 -3 -42 -3 -39 1
-41 2 -13 8 28 7 55 4 55 -5z m2635 6 c-3 -5 -24 -10 -46 -10 -24 0 -38 4 -34
10 3 6 24 10 46 10 24 0 38 -4 34 -10z m-3302 -7 c-13 -2 -33 -2 -45 0 -13 2
-3 4 22 4 25 0 35 -2 23 -4z m57 -13 c12 -8 9 -10 -13 -10 -16 0 -26 4 -22 10
8 12 16 12 35 0z m2580 -7 c0 -7 -18 -11 -47 -11 -50 0 -66 4 -59 17 8 13 106
7 106 -6z m-3540 -13 c0 -11 -4 -20 -10 -20 -5 0 -10 9 -10 20 0 11 5 20 10
20 6 0 10 -9 10 -20z m235 8 c14 -6 25 -15 25 -20 0 -4 12 -8 26 -8 22 0 24
-3 18 -22 -3 -13 -8 -25 -10 -27 -1 -2 -28 18 -59 43 -54 44 -55 59 0 34z
m108 -8 c6 -23 -1 -25 -25 -6 -23 17 -23 26 1 26 10 0 21 -9 24 -20z m117 10
c0 -5 -7 -10 -15 -10 -8 0 -15 -4 -15 -9 0 -5 -9 -7 -19 -4 -16 4 -17 8 -8 19
14 15 57 19 57 4z m274 -5 c-7 -17 -21 -20 -26 -4 -2 6 -14 8 -31 4 -15 -4
-24 -11 -21 -16 3 -5 -6 -9 -20 -9 -29 0 -32 5 -13 25 7 9 32 14 64 15 43 0
51 -3 47 -15z m3551 5 c-3 -5 -17 -10 -31 -10 -13 0 -24 5 -24 10 0 6 14 10
31 10 17 0 28 -4 24 -10z m-295 -56 c0 -8 -4 -14 -9 -14 -6 0 -9 9 -8 19 1 22
17 18 17 -5z m-3622 -32 c2 -7 -3 -12 -12 -12 -9 0 -16 7 -16 16 0 17 22 14
28 -4z m42 -2 c0 -5 -7 -10 -15 -10 -8 0 -15 5 -15 10 0 6 7 10 15 10 8 0 15
-4 15 -10z m506 -4 c21 -21 17 -33 -11 -40 -41 -10 -33 -42 13 -50 22 -3 51
-17 66 -31 l27 -25 -235 0 c-151 0 -236 4 -236 10 0 6 7 10 15 10 8 0 15 4 15
9 0 6 27 15 61 22 33 7 67 18 74 25 15 15 35 19 35 6 0 -4 9 -8 20 -8 22 0 27
12 8 19 -7 3 5 3 27 0 46 -5 99 11 93 30 -3 6 -14 13 -26 15 -12 2 -22 8 -22
13 0 14 60 10 76 -5z m3019 4 c3 -5 -3 -10 -15 -10 -12 0 -18 5 -15 10 3 6 10
10 15 10 5 0 12 -4 15 -10z m-3660 -20 c-3 -5 -10 -10 -16 -10 -5 0 -9 5 -9
10 0 6 7 10 16 10 8 0 12 -4 9 -10z m752 -20 c14 -16 32 -30 40 -30 7 0 13 -4
13 -10 0 -6 42 -10 105 -10 58 0 105 -3 105 -7 0 -5 -55 -8 -122 -7 -114 1
-122 2 -131 22 -6 12 -25 26 -43 32 -19 7 -34 18 -34 26 0 24 39 15 67 -16z
m3110 14 c-3 -3 -12 -4 -19 -1 -8 3 -5 6 6 6 11 1 17 -2 13 -5z m-3797 -29 c0
-8 -4 -15 -10 -15 -5 0 -10 7 -10 15 0 8 5 15 10 15 6 0 10 -7 10 -15z m1360
7 c0 -10 -22 -32 -32 -32 -4 0 -8 9 -8 20 0 13 7 20 20 20 11 0 20 -4 20 -8z
m-1270 -21 c0 -6 -4 -13 -10 -16 -5 -3 -10 1 -10 9 0 9 5 16 10 16 6 0 10 -4
10 -9z m960 0 c0 -16 -18 -22 -45 -15 -37 9 -31 24 10 24 19 0 35 -4 35 -9z
m2600 -1 c0 -5 -4 -10 -10 -10 -5 0 -10 5 -10 10 0 6 5 10 10 10 6 0 10 -4 10
-10z m263 -7 c-7 -2 -19 -2 -25 0 -7 3 -2 5 12 5 14 0 19 -2 13 -5z m-4233
-29 c0 -8 -4 -14 -9 -14 -11 0 -22 26 -14 34 9 9 23 -3 23 -20z m1360 -4 c0
-5 -9 -10 -21 -10 -11 0 -17 5 -14 10 3 6 13 10 21 10 8 0 14 -4 14 -10z
m-1073 -32 c-3 -8 -6 -5 -6 6 -1 11 2 17 5 13 3 -3 4 -12 1 -19z m923 2 c0 -5
-11 -10 -25 -10 -14 0 -25 5 -25 10 0 6 11 10 25 10 14 0 25 -4 25 -10z m190
-21 c0 -5 -18 -9 -40 -9 -45 0 -55 17 -12 22 32 4 52 -1 52 -13z m444 -4 c3
-8 1 -15 -4 -15 -6 0 -10 7 -10 15 0 8 2 15 4 15 2 0 6 -7 10 -15z m-524 -24
c0 -4 -11 -8 -25 -9 -26 -2 -35 13 -12 21 14 5 37 -2 37 -12z m-1358 -13 c2
-13 9 -22 16 -20 7 1 12 -9 11 -25 0 -16 -3 -22 -6 -16 -5 15 -43 -1 -43 -18
0 -15 26 -39 34 -32 3 4 6 -1 6 -10 0 -10 -7 -17 -15 -17 -8 0 -15 7 -15 15 0
8 -4 15 -10 15 -5 0 -10 -5 -10 -11 0 -6 -6 -4 -14 4 -14 14 -11 63 5 73 5 3
9 18 9 35 0 35 27 41 32 7z m348 18 c0 -11 -19 -15 -25 -6 -3 5 1 10 9 10 9 0
16 -2 16 -4z m1168 -21 c16 -35 15 -37 -8 -25 -11 6 -20 20 -20 30 0 28 15 25
28 -5z m-58 -5 c0 -5 -4 -10 -10 -10 -5 0 -10 5 -10 10 0 6 5 10 10 10 6 0 10
-4 10 -10z m-927 -23 c-35 -29 -61 -39 -68 -26 -12 19 29 45 78 48 15 1 13 -4
-10 -22z m897 2 c0 -5 -15 -9 -32 -9 l-33 1 25 13 c25 14 40 13 40 -5z m-766
2 c3 -4 -6 -13 -20 -20 -21 -9 -30 -9 -41 1 -14 11 -13 14 8 19 35 10 47 10
53 0z m90 -16 c-4 -8 -16 -15 -28 -15 -21 1 -21 1 -2 15 25 19 37 19 30 0z
m559 -6 c-8 -8 -16 -8 -30 0 -16 9 -14 10 12 11 21 0 26 -3 18 -11z m-263 -20
c74 1 146 -2 160 -8 19 -7 1 -10 -80 -11 -58 -1 -121 -1 -141 0 -25 1 -38 -4
-42 -14 -8 -20 -33 -21 -41 -1 -3 8 -15 15 -26 15 -11 0 -20 -7 -20 -15 0 -10
-10 -15 -30 -15 -16 0 -30 -4 -30 -9 0 -5 -15 -12 -32 -15 -79 -16 -87 -19
-82 -27 3 -5 28 -9 55 -9 31 0 48 -4 44 -10 -8 -13 -78 -13 -92 1 -14 14 -59
7 -55 -9 1 -8 -1 -11 -5 -9 -5 3 -19 0 -33 -5 -14 -6 -36 -12 -49 -14 -13 -1
-32 -11 -42 -20 -36 -33 -183 -28 -223 8 -6 4 -18 8 -28 8 -10 0 -18 5 -18 10
0 6 -11 10 -25 10 -14 0 -25 -4 -25 -10 0 -5 11 -10 25 -10 14 0 25 -4 25 -10
0 -5 10 -10 22 -10 17 0 19 -3 10 -12 -9 -9 -21 -9 -55 1 -38 11 -115 22 -159
22 -10 0 -18 8 -19 17 0 9 -3 12 -5 5 -4 -8 -11 -6 -25 8 -10 10 -19 21 -19
24 0 3 59 5 131 5 103 0 134 -3 145 -15 9 -8 26 -15 40 -15 13 0 24 -4 24 -10
0 -5 11 -10 25 -10 13 0 28 -7 33 -16 8 -14 10 -14 25 0 8 9 29 16 46 16 17 0
31 4 31 9 0 5 11 12 25 15 14 4 25 11 25 16 0 6 16 10 35 10 19 0 35 3 35 8 0
9 72 32 99 32 11 0 23 5 26 10 3 6 17 10 30 10 12 0 25 7 29 15 3 9 18 15 36
15 16 0 30 4 30 9 0 11 31 20 45 12 5 -2 70 -4 145 -2z m440 2 c0 -12 -42 -19
-66 -11 -17 7 -16 8 6 12 43 9 60 8 60 -1z m-898 -21 c24 0 23 -13 -4 -36 -12
-10 -18 -13 -14 -6 9 15 -30 17 -39 2 -8 -13 -55 -13 -75 0 -12 8 -9 10 11 10
14 0 39 11 55 25 18 16 32 21 38 15 6 -6 18 -10 28 -10z m95 14 c-3 -3 -12 -4
-19 -1 -8 3 -5 6 6 6 11 1 17 -2 13 -5z m3563 -4 c0 -5 -7 -10 -15 -10 -8 0
-15 5 -15 10 0 6 7 10 15 10 8 0 15 -4 15 -10z m-2940 -20 c0 -5 -13 -10 -30
-10 -16 0 -30 5 -30 10 0 6 14 10 30 10 17 0 30 -4 30 -10z m-920 -36 c0 -8
-7 -14 -15 -14 -15 0 -21 21 -9 33 10 9 24 -2 24 -19z m-465 6 c-28 -12 -37
-12 -30 0 3 6 16 10 28 9 21 0 21 -1 2 -9z m1290 0 c-8 -13 -35 -13 -55 0 -11
7 -5 10 23 10 23 0 36 -4 32 -10z m-112 -17 c-13 -2 -33 -2 -45 0 -13 2 -3 4
22 4 25 0 35 -2 23 -4z m-160 -20 c-13 -2 -33 -2 -45 0 -13 2 -3 4 22 4 25 0
35 -2 23 -4z m1877 -3 c0 -5 -2 -10 -4 -10 -3 0 -8 5 -11 10 -3 6 -1 10 4 10
6 0 11 -4 11 -10z m-2150 -50 c-20 -13 -33 -13 -25 0 3 6 14 10 23 10 15 0 15
-2 2 -10z m-322 -62 c-7 -20 -58 -23 -58 -4 0 11 10 16 31 16 20 0 29 -4 27
-12z"/>
<path d="M866 4166 c7 -17 44 -22 44 -6 0 6 -4 10 -9 10 -5 0 -17 3 -25 6 -12
5 -15 2 -10 -10z"/>
<path d="M766 1685 c-8 -8 -19 -15 -25 -15 -7 0 -11 -36 -11 -100 0 -55 3
-100 6 -100 18 0 45 24 40 35 -3 8 0 28 5 45 13 36 57 43 66 10 5 -20 23 -28
23 -10 0 6 14 10 30 10 23 0 30 -5 30 -19 0 -19 -68 -81 -89 -81 -17 0 -13
-17 5 -24 16 -6 78 37 104 74 8 11 23 20 33 20 15 0 16 3 7 20 -14 26 -107
120 -118 120 -5 0 -15 7 -22 15 -7 8 -25 15 -41 15 -15 0 -34 -7 -43 -15z"/>
<path d="M530 1625 c0 -8 5 -15 10 -15 6 0 10 7 10 15 0 8 -4 15 -10 15 -5 0
-10 -7 -10 -15z"/>
<path d="M458 1583 c5 -9 22 -17 38 -19 16 -1 23 0 17 3 -7 2 -13 11 -13 19 0
8 -10 14 -25 14 -21 0 -24 -3 -17 -17z"/>
<path d="M410 1550 c-13 -8 -13 -11 2 -26 19 -19 38 -11 38 17 0 21 -16 24
-40 9z"/>
<path d="M510 1526 c0 -9 -7 -16 -15 -16 -19 0 -19 -7 1 -27 10 -11 19 -12 26
-5 6 6 6 12 -2 17 -8 5 -8 10 0 20 8 9 8 15 0 20 -5 3 -10 -1 -10 -9z"/>
<path d="M346 1513 c-12 -12 -5 -23 14 -23 11 0 20 4 20 9 0 11 -26 22 -34 14z"/>
<path d="M565 1348 c-15 -46 -8 -68 23 -68 23 1 25 2 11 13 -9 7 -15 22 -14
35 2 26 -13 41 -20 20z"/>
<path d="M3957 1406 c-3 -7 -1 -19 4 -27 8 -12 12 -11 24 5 8 11 15 23 15 26
0 12 -39 8 -43 -4z"/>
<path d="M3707 1145 c-7 -16 8 -29 23 -20 10 6 2 35 -10 35 -4 0 -10 -7 -13
-15z"/>
<path d="M3480 1143 c-9 -2 -21 -12 -27 -21 -9 -16 -7 -17 23 -14 24 3 34 0
34 -9 0 -11 2 -11 10 1 11 17 14 37 3 27 -3 -4 -11 -1 -17 6 -6 8 -18 12 -26
10z"/>
<path d="M3785 1130 c-3 -5 1 -10 9 -10 9 0 16 5 16 10 0 6 -4 10 -9 10 -6 0
-13 -4 -16 -10z"/>
<path d="M4050 1110 c0 -5 5 -10 10 -10 6 0 10 5 10 10 0 6 -4 10 -10 10 -5 0
-10 -4 -10 -10z"/>
<path d="M3689 1084 c-9 -11 -4 -14 30 -14 45 0 48 14 6 22 -14 3 -30 -1 -36
-8z"/>
<path d="M3820 1085 c-12 -14 -3 -16 88 -13 117 3 139 18 28 18 -41 0 -81 2
-89 5 -7 3 -20 -1 -27 -10z"/>
<path d="M4020 1080 c0 -5 9 -10 21 -10 11 0 17 5 14 10 -3 6 -13 10 -21 10
-8 0 -14 -4 -14 -10z"/>
<path d="M320 1130 c0 -5 6 -10 14 -10 8 0 23 -3 33 -7 16 -6 16 -5 4 10 -15
18 -51 23 -51 7z"/>
<path d="M410 1110 c0 -5 9 -10 21 -10 11 0 17 5 14 10 -3 6 -13 10 -21 10 -8
0 -14 -4 -14 -10z"/>
<path d="M386 1092 c-3 -6 -1 -14 5 -17 15 -10 25 3 12 16 -7 7 -13 7 -17 1z"/>
<path d="M888 963 c7 -3 16 -2 19 1 4 3 -2 6 -13 5 -11 0 -14 -3 -6 -6z"/>
<path d="M415 880 c-3 -5 1 -10 10 -10 9 0 13 5 10 10 -3 6 -8 10 -10 10 -2 0
-7 -4 -10 -10z"/>
<path d="M1265 880 c-3 -5 -1 -10 4 -10 6 0 11 5 11 10 0 6 -2 10 -4 10 -3 0
-8 -4 -11 -10z"/>
<path d="M1215 850 c-3 -5 3 -10 14 -10 11 0 23 5 26 10 3 6 -3 10 -14 10 -11
0 -23 -4 -26 -10z"/>
<path d="M880 700 c0 -5 5 -10 11 -10 5 0 7 5 4 10 -3 6 -8 10 -11 10 -2 0 -4
-4 -4 -10z"/>
<path d="M3700 810 c0 -5 5 -10 11 -10 5 0 7 5 4 10 -3 6 -8 10 -11 10 -2 0
-4 -4 -4 -10z"/>
<path d="M1860 640 c0 -16 5 -30 10 -30 6 0 10 14 10 30 0 17 -4 30 -10 30 -5
0 -10 -13 -10 -30z"/>
<path d="M275 100 c4 -6 11 -8 16 -5 14 9 11 15 -7 15 -8 0 -12 -5 -9 -10z"/>
<path d="M3615 4590 c3 -5 21 -10 39 -10 19 0 39 -7 46 -15 7 -8 25 -15 40
-15 16 0 61 -12 102 -26 40 -14 85 -28 101 -31 15 -3 27 -9 27 -14 0 -5 18
-12 40 -15 22 -4 40 -10 40 -15 0 -5 9 -9 20 -9 11 0 20 -4 20 -10 0 -5 11
-10 25 -10 14 0 33 -4 43 -9 9 -5 44 -21 77 -37 33 -16 62 -32 63 -36 2 -4 8
-8 13 -8 5 0 18 -9 29 -20 11 -11 31 -20 45 -20 14 0 28 -7 31 -15 4 -9 19
-15 40 -15 19 0 34 -4 34 -9 0 -5 12 -16 28 -23 15 -8 39 -22 53 -31 l26 -17
1 50 c1 45 -1 50 -22 50 -12 0 -27 -5 -34 -12 -7 -7 -15 -8 -24 -1 -7 5 -33
16 -58 23 -25 8 -62 24 -82 37 -21 13 -44 23 -52 23 -13 0 -26 20 -26 41 0 5
31 9 69 9 39 0 73 5 76 10 3 6 40 10 81 10 72 0 74 1 74 24 0 24 -2 25 -67 23
-45 -1 -68 2 -71 11 -2 6 -15 12 -28 12 -17 0 -24 6 -24 19 0 10 -7 21 -15 25
-9 3 -15 18 -15 36 0 25 -4 30 -25 30 -19 0 -25 -5 -25 -22 1 -28 22 -67 35
-65 5 1 12 -11 15 -27 3 -17 8 -29 13 -28 17 4 27 1 27 -8 0 -5 -13 -10 -29
-10 -17 0 -32 -4 -35 -9 -11 -17 -52 -9 -53 10 -2 21 26 26 44 8 8 -8 13 -8
17 0 4 6 1 11 -7 11 -9 0 -17 14 -21 35 -8 43 -22 45 -31 6 -3 -16 -14 -31
-25 -34 -20 -5 -25 -47 -5 -47 5 0 2 -5 -9 -11 -13 -8 -20 -8 -26 0 -4 7 -17
13 -28 14 -12 1 -22 5 -22 9 0 4 -9 8 -20 8 -11 0 -20 6 -20 14 0 23 -22 34
-80 40 -30 4 -56 11 -58 16 -2 6 -16 10 -30 10 -15 0 -35 7 -45 14 -15 12 -16
14 -2 20 27 10 16 26 -20 26 -19 0 -35 5 -35 10 0 6 -13 10 -30 10 -16 0 -30
-4 -30 -10 0 -5 5 -10 10 -10 16 0 11 -17 -7 -24 -11 -4 -22 -1 -29 8 -6 9
-21 17 -32 19 -12 2 -25 6 -28 10 -12 11 -126 8 -119 -3z"/>
<path d="M4018 4593 c7 -3 16 -2 19 1 4 3 -2 6 -13 5 -11 0 -14 -3 -6 -6z"/>
<path d="M4200 4585 c0 -17 2 -18 24 -9 23 9 20 24 -4 24 -11 0 -20 -7 -20
-15z"/>
<path d="M4290 4574 c0 -14 4 -23 10 -19 6 3 10 15 10 26 0 10 -4 19 -10 19
-5 0 -10 -12 -10 -26z"/>
<path d="M2977 4574 c-10 -10 -9 -74 2 -74 12 0 19 42 11 64 -3 9 -9 14 -13
10z"/>
<path d="M4040 4570 c0 -5 5 -10 10 -10 6 0 10 5 10 10 0 6 -4 10 -10 10 -5 0
-10 -4 -10 -10z"/>
<path d="M2860 4565 c0 -3 7 -14 16 -23 15 -14 16 -14 13 3 -4 17 -29 35 -29
20z"/>
<path d="M3960 4550 c0 -5 8 -10 18 -10 10 0 27 -7 38 -15 22 -17 44 -19 44
-5 0 6 -9 10 -19 10 -11 0 -21 4 -23 8 -5 13 -58 24 -58 12z"/>
<path d="M4240 4529 c0 -28 1 -29 16 -14 9 8 13 22 10 30 -10 26 -26 16 -26
-16z"/>
<path d="M3335 4526 c-13 -14 -33 -27 -44 -31 -10 -3 -22 -12 -25 -20 -3 -8
-13 -15 -23 -15 -15 -1 -14 -3 5 -13 12 -7 19 -16 16 -20 -14 -13 -40 -7 -54
13 -17 24 -74 27 -95 6 -8 -7 -17 -38 -21 -67 -4 -30 -10 -59 -15 -65 -5 -7
-3 -11 6 -11 10 0 15 11 15 36 0 47 15 72 25 42 9 -29 29 -27 43 4 16 35 15
37 -10 33 -11 -2 -23 2 -25 8 -6 17 25 25 39 11 7 -7 21 -16 31 -20 18 -7 24
-47 7 -47 -5 0 -10 -9 -10 -20 0 -25 11 -25 38 0 24 23 39 22 62 0 8 -9 14
-14 14 -12 -4 9 14 57 22 58 33 5 54 18 52 33 -2 9 3 15 10 14 6 -2 12 4 12
13 0 8 5 12 10 9 6 -3 11 2 12 12 0 10 2 25 3 33 4 45 -61 55 -100 16z"/>
<path d="M3718 4523 c7 -3 16 -2 19 1 4 3 -2 6 -13 5 -11 0 -14 -3 -6 -6z"/>
<path d="M1633 4514 c-7 -3 -9 -12 -6 -20 3 -8 0 -14 -7 -14 -6 0 -8 -5 -5
-11 5 -7 28 -8 63 -5 52 5 82 15 51 17 -8 0 -3 5 11 11 14 6 28 10 33 10 4 -1
7 3 7 8 0 10 -124 13 -147 4z"/>
<path d="M2920 4486 c0 -8 -9 -16 -20 -19 -23 -6 -27 -27 -5 -27 8 0 24 -6 35
-12 17 -11 22 -10 30 2 16 23 7 52 -17 61 -17 6 -23 5 -23 -5z"/>
<path d="M4180 4490 c0 -12 35 -31 44 -23 15 15 4 33 -19 33 -14 0 -25 -4 -25
-10z"/>
<path d="M3558 4463 c-30 -5 -36 -24 -14 -43 8 -6 12 -18 9 -25 -3 -9 4 -16
20 -20 18 -5 24 -12 22 -25 -4 -23 32 -64 64 -73 19 -5 22 -2 19 21 -2 16 -12
31 -25 37 -13 5 -23 15 -23 22 0 7 -8 17 -17 22 -10 6 -12 11 -5 11 6 0 12 6
12 14 0 8 -6 17 -12 20 -10 5 -10 7 0 12 6 3 12 12 12 20 0 14 -9 15 -62 7z"/>
<path d="M1752 4432 c4 -21 38 -29 38 -9 0 8 -9 17 -21 20 -15 4 -19 1 -17
-11z"/>
<path d="M3466 4427 c-8 -29 -8 -67 0 -67 13 0 33 35 34 56 0 30 -26 38 -34
11z"/>
<path d="M2396 4428 c3 -4 24 -8 47 -8 31 0 38 3 27 10 -18 12 -81 10 -74 -2z"/>
<path d="M1840 4415 c0 -16 8 -17 68 -13 78 6 98 2 82 -17 -8 -9 -7 -14 4 -18
22 -9 29 23 9 39 -10 7 -43 14 -75 14 -31 0 -63 3 -72 6 -11 4 -16 0 -16 -11z"/>
<path d="M2220 4408 c0 -9 16 -13 55 -13 70 0 67 19 -3 23 -38 2 -52 -1 -52
-10z"/>
<path d="M2360 4406 c0 -9 5 -16 10 -16 6 0 10 4 10 9 0 6 -4 13 -10 16 -5 3
-10 -1 -10 -9z"/>
<path d="M732 4388 c5 -13 38 -20 38 -8 0 4 -7 11 -16 14 -22 9 -26 8 -22 -6z"/>
<path d="M1025 4390 c-3 -5 1 -10 10 -10 9 0 13 5 10 10 -3 6 -8 10 -10 10 -2
0 -7 -4 -10 -10z"/>
<path d="M1652 4388 c5 -15 56 -18 60 -3 2 6 -12 11 -31 13 -24 3 -32 0 -29
-10z"/>
<path d="M187 4370 c6 -22 18 -26 29 -9 3 6 0 15 -7 20 -22 14 -28 11 -22 -11z"/>
<path d="M1115 4383 c-57 -9 -71 -43 -17 -43 47 0 72 11 72 31 0 11 -6 18 -12
18 -7 -1 -26 -4 -43 -6z"/>
<path d="M3697 4383 c-14 -13 -6 -33 13 -33 22 0 23 1 14 24 -7 17 -16 20 -27
9z"/>
<path d="M305 4360 c-3 -5 -17 -10 -30 -10 -13 0 -28 -6 -32 -13 -4 -7 -18
-20 -31 -29 -35 -24 -8 -32 38 -12 22 10 40 21 40 24 0 3 9 16 20 28 12 12 16
22 11 22 -5 0 -13 -4 -16 -10z"/>
<path d="M1632 4348 c3 -7 22 -14 44 -15 29 -2 34 0 19 6 -11 5 -23 7 -27 5
-4 -3 -9 0 -13 6 -9 14 -27 12 -23 -2z"/>
<path d="M150 4340 c-13 -8 -12 -10 3 -10 9 0 17 5 17 10 0 12 -1 12 -20 0z"/>
<path d="M796 4302 c-4 -11 -17 -22 -29 -26 -18 -4 -19 -8 -9 -18 11 -11 16
-10 26 5 7 9 18 17 24 17 18 0 23 17 8 29 -11 10 -16 8 -20 -7z"/>
<path d="M3245 4310 c-9 -14 -6 -17 25 -22 17 -2 25 2 25 12 0 18 -40 26 -50
10z"/>
<path d="M3170 4295 c0 -8 5 -15 10 -15 6 0 10 7 10 15 0 8 -4 15 -10 15 -5 0
-10 -7 -10 -15z"/>
<path d="M3107 4287 c-2 -7 0 -20 5 -29 6 -13 5 -18 -7 -18 -8 0 -15 -4 -15
-10 0 -5 6 -10 14 -10 8 0 18 5 21 10 3 6 15 10 26 10 16 0 17 3 8 19 -18 27
-47 43 -52 28z"/>
<path d="M3888 4283 c22 -16 126 -22 139 -9 4 3 -17 6 -45 6 -28 0 -54 5 -57
10 -3 6 -18 10 -33 9 l-27 0 23 -16z"/>
<path d="M1150 4280 c0 -5 9 -10 21 -10 11 0 17 5 14 10 -3 6 -13 10 -21 10
-8 0 -14 -4 -14 -10z"/>
<path d="M3200 4275 c0 -8 7 -15 15 -15 8 0 15 4 15 9 0 5 -7 11 -15 15 -9 3
-15 0 -15 -9z"/>
<path d="M3766 4270 c7 -7 19 -7 35 -1 23 9 22 10 -10 10 -24 1 -32 -2 -25 -9z"/>
<path d="M3330 4229 c0 -5 5 -7 10 -4 6 3 10 8 10 11 0 2 -4 4 -10 4 -5 0 -10
-5 -10 -11z"/>
<path d="M3285 4201 c-3 -5 -19 -12 -36 -16 -35 -8 -34 -28 2 -33 13 -2 29
-10 36 -19 6 -8 20 -13 30 -10 16 4 15 6 -4 12 -28 9 -29 26 -3 43 12 7 18 17
15 22 -8 13 -32 13 -40 1z"/>
<path d="M4122 4203 c-21 -8 -60 -50 -67 -71 -3 -13 0 -22 9 -25 10 -4 16 2
18 21 3 24 8 27 43 29 22 1 48 2 58 2 16 1 16 3 1 26 -16 24 -34 29 -62 18z"/>
<path d="M4500 4194 c0 -8 5 -12 10 -9 6 3 10 10 10 16 0 5 -4 9 -10 9 -5 0
-10 -7 -10 -16z"/>
<path d="M4232 4184 c-14 -16 -5 -18 17 -5 7 5 9 11 5 14 -5 3 -15 -1 -22 -9z"/>
<path d="M301 4164 c0 -11 3 -14 6 -6 3 7 2 16 -1 19 -3 4 -6 -2 -5 -13z"/>
<path d="M220 4160 c0 -5 5 -10 10 -10 6 0 10 5 10 10 0 6 -4 10 -10 10 -5 0
-10 -4 -10 -10z"/>
<path d="M250 4130 c0 -5 7 -10 15 -10 8 0 15 5 15 10 0 6 -7 10 -15 10 -8 0
-15 -4 -15 -10z"/>
<path d="M4360 4121 c0 -14 10 -21 37 -26 20 -3 44 -17 54 -30 15 -18 27 -22
64 -21 25 1 45 -2 45 -6 0 -4 9 -8 20 -8 14 0 20 7 20 21 0 18 -4 20 -25 15
-27 -7 -35 10 -14 31 8 8 8 13 -1 18 -14 8 -39 -23 -40 -49 0 -12 -5 -16 -16
-12 -9 3 -20 6 -25 6 -5 0 -9 6 -9 13 0 17 -33 44 -48 39 -7 -2 -15 3 -18 12
-9 23 -44 20 -44 -3z"/>
<path d="M3368 4113 c7 -3 16 -2 19 1 4 3 -2 6 -13 5 -11 0 -14 -3 -6 -6z"/>
<path d="M410 4075 c0 -9 -9 -15 -24 -15 -15 0 -26 -7 -29 -20 -3 -11 -12 -20
-20 -20 -9 0 -19 -10 -23 -22 -4 -13 -14 -28 -23 -35 -14 -11 -13 -12 7 -13
16 0 22 6 22 21 0 12 4 18 11 13 7 -4 19 3 28 15 15 19 21 21 45 12 39 -15 51
-14 36 4 -6 8 -9 19 -5 25 3 5 1 10 -5 10 -7 0 -9 8 -5 20 4 11 2 20 -4 20 -6
0 -11 -7 -11 -15z"/>
<path d="M4310 4080 c0 -5 11 -10 25 -10 14 0 25 5 25 10 0 6 -11 10 -25 10
-14 0 -25 -4 -25 -10z"/>
<path d="M3586 4072 c-3 -6 1 -13 10 -16 24 -9 54 -7 54 4 0 6 -6 10 -14 10
-8 0 -21 3 -29 6 -8 3 -18 1 -21 -4z"/>
<path d="M4020 4070 c0 -5 7 -10 15 -10 8 0 15 5 15 10 0 6 -7 10 -15 10 -8 0
-15 -4 -15 -10z"/>
<path d="M3866 4052 c-3 -6 -37 -13 -76 -17 -65 -6 -70 -9 -70 -30 0 -14 7
-26 19 -30 21 -6 51 3 51 16 0 5 13 9 30 9 19 0 33 7 40 20 6 12 21 20 35 20
18 0 25 -5 25 -20 0 -15 -7 -20 -25 -20 -18 0 -25 -5 -25 -20 0 -25 12 -25 35
0 10 11 33 22 51 26 19 3 31 10 28 15 -3 5 0 9 5 9 6 0 11 4 11 10 0 5 -19 9
-42 8 -24 -1 -53 2 -64 6 -12 4 -24 3 -28 -2z"/>
<path d="M100 4040 c0 -5 7 -10 15 -10 15 0 21 -21 9 -32 -10 -10 -44 4 -44
19 0 8 -5 11 -10 8 -14 -8 26 -65 46 -65 8 0 14 5 14 11 0 7 8 18 18 25 16 12
16 14 -5 33 -24 22 -43 27 -43 11z"/>
<path d="M3516 4004 c-4 -9 -5 -18 -4 -18 2 -1 15 -10 30 -19 15 -9 35 -14 44
-10 11 4 15 3 10 -5 -3 -6 3 -13 14 -17 11 -3 20 -13 20 -21 0 -8 7 -14 15
-14 8 0 15 5 15 10 0 6 9 10 20 10 11 0 20 5 20 11 0 6 -9 8 -20 4 -11 -4 -20
-2 -20 4 0 6 6 11 13 12 6 0 -7 8 -29 17 -23 9 -48 22 -55 29 -27 22 -66 26
-73 7z"/>
<path d="M457 3982 c-14 -3 -16 -7 -6 -18 6 -8 8 -14 3 -15 -24 -2 36 -18 69
-18 37 -1 37 -1 22 23 -16 23 -52 35 -88 28z"/>
<path d="M363 3945 c-7 -20 -6 -21 47 -29 38 -6 43 -5 30 7 -8 7 -28 19 -43
25 -23 10 -29 9 -34 -3z"/>
<path d="M4408 3953 c7 -3 16 -2 19 1 4 3 -2 6 -13 5 -11 0 -14 -3 -6 -6z"/>
<path d="M171 3900 c-8 -4 -10 -13 -7 -19 9 -13 43 -15 51 -2 8 14 -28 31 -44
21z"/>
<path d="M3670 3890 c-13 -9 -13 -11 -1 -19 9 -6 22 -6 32 -1 9 5 18 8 20 7 2
-1 -2 4 -10 11 -18 14 -21 15 -41 2z"/>
<path d="M125 3881 c-6 -11 9 -23 19 -14 9 9 7 23 -3 23 -6 0 -12 -4 -16 -9z"/>
<path d="M60 3830 c0 -5 9 -10 21 -10 11 0 17 5 14 10 -3 6 -13 10 -21 10 -8
0 -14 -4 -14 -10z"/>
<path d="M4080 3785 c0 -8 -9 -15 -21 -15 -11 0 -17 -4 -14 -10 3 -5 16 -8 28
-6 12 3 27 5 34 5 16 1 4 41 -13 41 -8 0 -14 -7 -14 -15z"/>
<path d="M4185 3790 c-8 -13 4 -32 16 -25 12 8 12 35 0 35 -6 0 -13 -4 -16
-10z"/>
<path d="M0 3740 c0 -5 9 -10 20 -10 11 0 20 5 20 10 0 6 -9 10 -20 10 -11 0
-20 -4 -20 -10z"/>
<path d="M4556 3735 c-3 -9 -19 -15 -41 -15 -41 0 -47 -17 -8 -26 21 -6 30 -2
41 14 8 12 23 22 33 22 11 0 19 5 19 10 0 16 -37 12 -44 -5z"/>
<path d="M3845 3690 c3 -5 19 -8 36 -6 46 5 47 16 0 16 -25 0 -40 -4 -36 -10z"/>
<path d="M3820 3658 c0 -14 6 -25 13 -25 16 0 15 39 -1 45 -7 2 -12 -6 -12
-20z"/>
<path d="M4480 3670 c0 -5 5 -10 11 -10 5 0 7 5 4 10 -3 6 -8 10 -11 10 -2 0
-4 -4 -4 -10z"/>
<path d="M2050 3600 c0 -5 5 -10 10 -10 6 0 10 5 10 10 0 6 -4 10 -10 10 -5 0
-10 -4 -10 -10z"/>
<path d="M1790 3576 c0 -8 5 -18 10 -21 6 -3 10 3 10 14 0 12 -4 21 -10 21 -5
0 -10 -6 -10 -14z"/>
<path d="M4200 3566 c0 -8 7 -16 15 -20 22 -8 45 3 38 20 -7 18 -53 18 -53 0z"/>
<path d="M183 3515 c-3 -9 -3 -18 0 -21 9 -9 48 16 42 27 -9 14 -35 11 -42 -6z"/>
<path d="M4394 3515 c-4 -9 -5 -18 -2 -20 2 -2 49 -5 103 -7 90 -3 100 -1 103
15 3 17 -3 18 -75 16 -43 -2 -88 0 -101 5 -16 5 -24 3 -28 -9z"/>
<path d="M90 3495 c0 -8 4 -15 10 -15 5 0 7 7 4 15 -4 8 -8 15 -10 15 -2 0 -4
-7 -4 -15z"/>
<path d="M250 3480 c-13 -8 -12 -10 3 -10 9 0 17 5 17 10 0 12 -1 12 -20 0z"/>
<path d="M0 3459 c0 -5 5 -7 10 -4 5 3 10 8 10 11 0 2 -4 4 -10 4 -5 0 -10 -5
-10 -11z"/>
<path d="M40 3460 c0 -5 9 -10 20 -10 11 0 20 5 20 10 0 6 -9 10 -20 10 -11 0
-20 -4 -20 -10z"/>
<path d="M206 3444 c-12 -31 1 -33 34 -4 l23 20 -25 0 c-14 0 -29 -7 -32 -16z"/>
<path d="M129 3443 c-4 -29 5 -67 20 -82 17 -17 19 -17 29 -1 16 26 -5 90 -30
90 -10 0 -18 -3 -19 -7z"/>
<path d="M2100 3420 c0 -5 7 -10 15 -10 8 0 15 5 15 10 0 6 -7 10 -15 10 -8 0
-15 -4 -15 -10z"/>
<path d="M0 3365 c0 -21 5 -35 13 -35 8 0 7 -4 -3 -11 -12 -8 -10 -9 8 -5 52
14 60 17 66 31 5 15 -10 26 -58 45 -25 9 -26 8 -26 -25z"/>
<path d="M2160 3390 c0 -5 11 -10 25 -10 14 0 25 5 25 10 0 6 -11 10 -25 10
-14 0 -25 -4 -25 -10z"/>
<path d="M2399 3398 c-6 -15 -4 -78 3 -78 4 0 8 18 8 40 0 32 -5 51 -11 38z"/>
<path d="M4498 3393 c12 -2 32 -2 45 0 12 2 2 4 -23 4 -25 0 -35 -2 -22 -4z"/>
<path d="M4473 3373 c26 -2 67 -2 90 0 23 2 2 3 -48 3 -49 0 -68 -1 -42 -3z"/>
<path d="M2130 3340 c0 -5 16 -10 36 -10 21 0 33 4 29 10 -3 6 -19 10 -36 10
-16 0 -29 -4 -29 -10z"/>
<path d="M68 3303 c6 -2 18 -2 25 0 6 3 1 5 -13 5 -14 0 -19 -2 -12 -5z"/>
<path d="M12 3276 c7 -8 16 -12 21 -9 11 7 -2 23 -19 23 -12 0 -12 -2 -2 -14z"/>
<path d="M2128 3263 c-29 -4 -37 -18 -15 -26 20 -6 47 4 47 19 0 8 -1 13 -2
13 -2 -1 -15 -4 -30 -6z"/>
<path d="M2401 3244 c0 -11 3 -14 6 -6 3 7 2 16 -1 19 -3 4 -6 -2 -5 -13z"/>
<path d="M2930 3224 c0 -7 5 -14 10 -16 6 -2 11 -31 13 -66 1 -34 6 -62 11
-62 4 0 5 7 2 16 -4 10 1 22 11 30 10 7 13 14 7 14 -6 0 -14 22 -18 48 -4 34
-11 49 -21 49 -8 0 -15 -6 -15 -13z"/>
<path d="M2110 3210 c0 -5 5 -10 10 -10 6 0 10 5 10 10 0 6 -4 10 -10 10 -5 0
-10 -4 -10 -10z"/>
<path d="M2078 3133 c7 -3 16 -2 19 1 4 3 -2 6 -13 5 -11 0 -14 -3 -6 -6z"/>
<path d="M2970 3015 c0 -22 4 -34 10 -30 6 3 10 17 10 30 0 13 -4 27 -10 30
-6 4 -10 -8 -10 -30z"/>
<path d="M1330 3021 c0 -6 5 -13 10 -16 6 -3 10 1 10 9 0 9 -4 16 -10 16 -5 0
-10 -4 -10 -9z"/>
<path d="M2925 2837 c-60 -20 -95 -38 -95 -47 0 -6 -6 -10 -12 -10 -7 0 -28
-14 -47 -30 -18 -17 -38 -30 -42 -30 -5 0 -9 -9 -9 -20 0 -12 -11 -31 -25 -44
-14 -13 -25 -31 -25 -40 0 -9 -4 -16 -8 -16 -5 0 -14 -12 -21 -27 -11 -24 -10
-29 6 -41 15 -11 18 -11 21 2 2 9 8 16 13 16 5 0 9 6 9 14 0 8 11 23 25 34 14
11 25 23 25 27 0 10 27 35 38 35 6 0 12 7 16 15 3 8 13 15 21 15 9 0 23 7 32
15 8 9 28 19 44 22 16 3 29 9 29 14 0 5 15 9 34 9 18 0 51 7 72 16 48 20 116
15 176 -14 24 -12 50 -22 57 -22 25 0 95 -45 135 -87 46 -49 56 -52 56 -20 0
38 -12 67 -26 67 -8 0 -14 6 -14 13 0 7 -18 23 -39 35 -22 13 -42 30 -46 40
-6 19 -57 43 -128 60 -57 14 -230 14 -272 -1z"/>
<path d="M4380 2790 c0 -5 5 -10 10 -10 6 0 10 5 10 10 0 6 -4 10 -10 10 -5 0
-10 -4 -10 -10z"/>
<path d="M4380 2734 c1 -15 29 -48 36 -41 3 3 -3 16 -15 28 -12 13 -21 19 -21
13z"/>
<path d="M1535 2700 c-11 -5 -37 -9 -57 -9 -21 -1 -38 -5 -38 -11 0 -5 -5 -10
-11 -10 -6 0 -25 -11 -43 -25 -18 -14 -37 -25 -42 -25 -14 0 -57 -41 -84 -80
-13 -19 -29 -40 -35 -47 -5 -7 -16 -19 -22 -27 -7 -8 -13 -27 -13 -41 0 -15
-7 -33 -15 -41 -17 -18 -19 -33 -5 -54 8 -13 12 -12 25 7 8 12 22 29 30 37 8
8 15 21 15 28 0 7 9 19 20 26 11 7 20 21 20 32 0 11 6 20 13 20 7 0 22 8 33
18 10 10 27 21 37 25 9 3 17 11 17 17 0 5 9 10 20 10 11 0 20 4 20 9 0 5 11
12 25 15 14 4 25 11 25 16 0 6 55 10 139 10 111 0 141 -3 151 -15 7 -8 19 -15
26 -15 8 0 14 -4 14 -10 0 -5 7 -10 15 -10 16 0 47 -29 75 -70 25 -37 41 -50
61 -50 25 0 24 21 -1 53 -11 14 -20 30 -20 37 0 21 -92 120 -111 120 -11 0
-19 4 -19 9 0 16 -61 41 -101 41 -21 0 -41 5 -44 10 -7 12 -92 12 -120 0z"/>
<path d="M4365 2630 c-3 -5 -2 -10 4 -10 5 0 13 5 16 10 3 6 2 10 -4 10 -5 0
-13 -4 -16 -10z"/>
<path d="M4320 2610 c-12 -8 -11 -10 8 -10 12 0 22 5 22 10 0 13 -11 13 -30 0z"/>
<path d="M4370 2585 c-7 -8 -21 -15 -32 -15 -10 0 -16 -4 -13 -10 3 -5 15 -10
26 -10 25 0 25 -17 -1 -25 -11 -3 -20 -11 -20 -16 0 -5 -7 -9 -16 -9 -20 0
-49 -29 -39 -38 4 -4 10 -1 12 6 3 6 13 12 24 12 10 0 19 5 19 10 0 6 8 10 18
10 22 0 60 42 44 48 -15 5 -16 33 -1 30 6 -2 14 3 16 10 7 17 -22 15 -37 -3z"/>
<path d="M3359 2573 c-4 -26 5 -59 19 -69 8 -6 12 -16 8 -23 -4 -6 0 -14 8
-17 9 -3 16 -9 16 -13 0 -11 -64 -41 -95 -44 -17 -2 -35 -6 -40 -9 -6 -3 -29
-9 -52 -13 l-43 -7 0 55 c0 48 -3 57 -26 72 l-26 17 6 -44 c15 -101 15 -102
-29 -109 -22 -4 -67 -8 -100 -9 -73 -2 -138 -18 -130 -30 8 -13 202 -13 210 0
3 6 19 10 35 10 25 0 29 -4 32 -32 3 -36 28 -52 28 -18 0 37 18 57 57 64 70
12 138 30 148 38 15 13 25 9 25 -12 0 -10 9 -24 20 -30 19 -10 20 -8 20 38 0
46 2 49 35 62 19 8 35 17 35 22 0 4 7 8 15 8 8 0 15 5 15 10 0 6 6 10 14 10
14 0 26 21 26 47 0 13 -4 13 -27 -2 -16 -10 -38 -28 -49 -41 -12 -13 -28 -24
-36 -24 -8 0 -20 -6 -26 -12 -10 -10 -14 -8 -18 10 -4 12 -10 22 -15 22 -5 0
-9 11 -9 23 0 30 -47 76 -51 50z"/>
<path d="M2245 2411 c-4 -28 -13 -55 -21 -62 -8 -6 -14 -21 -15 -33 0 -11 -3
-15 -6 -8 -3 8 -17 -5 -35 -33 -16 -25 -34 -45 -39 -45 -17 0 -4 -59 17 -78
12 -12 43 -21 79 -25 33 -4 69 -8 80 -10 17 -2 20 5 23 43 2 25 -2 79 -8 120
-6 41 -14 99 -17 128 -4 46 -7 52 -28 52 -20 0 -24 -6 -30 -49z"/>
<path d="M3492 2349 c-11 -4 -23 -12 -27 -18 -3 -6 -15 -11 -26 -11 -10 0 -19
-4 -19 -10 0 -5 -9 -10 -19 -10 -11 0 -26 -7 -35 -15 -8 -8 -26 -15 -40 -15
-14 0 -26 -4 -26 -10 0 -5 -11 -10 -24 -10 -14 0 -28 -5 -31 -10 -4 -6 -19 -9
-35 -8 -16 1 -39 -3 -52 -9 -13 -6 -40 -14 -60 -18 -21 -3 -38 -10 -38 -15 0
-6 -18 -10 -40 -10 -22 0 -40 -4 -40 -10 0 -5 20 -10 45 -10 25 0 45 5 45 10
0 6 27 10 60 10 46 0 69 6 98 24 52 33 151 39 181 12 19 -18 22 -18 56 -1 20
9 51 18 70 20 30 3 34 0 40 -29 6 -27 8 -29 15 -11 8 20 3 142 -7 157 -5 10
-62 7 -91 -3z m58 -65 c0 -16 -2 -16 -24 -8 -12 5 -13 9 -3 19 14 15 27 10 27
-11z m-135 -34 c-3 -5 -10 -10 -16 -10 -5 0 -9 5 -9 10 0 6 7 10 16 10 8 0 12
-4 9 -10z m52 -16 c-3 -3 -12 -4 -19 -1 -8 3 -5 6 6 6 11 1 17 -2 13 -5z"/>
<path d="M1020 2280 c0 -6 -4 -9 -9 -6 -10 6 -34 -44 -26 -53 4 -3 11 2 16 12
14 24 24 21 39 -10 14 -30 14 -66 -1 -71 -5 -2 -9 -10 -9 -18 0 -8 -3 -14 -7
-14 -13 0 -32 -49 -22 -55 4 -3 11 6 15 20 3 14 12 25 20 25 19 0 18 -36 -1
-44 -18 -7 -20 -26 -2 -26 6 1 28 21 47 45 19 24 37 40 40 35 6 -10 97 -6 108
4 3 3 11 1 18 -5 10 -8 17 -5 30 9 14 17 20 18 40 7 35 -18 71 -8 78 21 5 18
13 24 36 24 16 0 32 5 35 10 4 6 -8 10 -29 10 -20 0 -36 -4 -36 -8 0 -12 -67
-31 -77 -22 -4 4 -31 10 -60 14 -39 5 -55 3 -67 -9 -8 -9 -32 -17 -53 -19 -20
-2 -39 -9 -41 -15 -2 -6 -8 -11 -13 -11 -16 0 -10 22 13 41 14 13 17 19 7 20
-8 1 -3 4 10 8 14 4 26 11 28 17 4 13 -60 36 -81 28 -9 -3 -17 -1 -17 5 -1 6
-2 16 -3 23 -1 15 -26 23 -26 8z m80 -59 c0 -6 -4 -13 -10 -16 -5 -3 -10 1
-10 9 0 9 5 16 10 16 6 0 10 -4 10 -9z"/>
<path d="M2458 2222 c-10 -2 -18 -8 -18 -13 0 -5 -5 -9 -11 -9 -11 0 -39 -24
-39 -34 0 -3 9 -6 21 -6 11 0 17 5 14 10 -4 6 8 10 29 10 22 0 36 5 36 13 0
21 -14 33 -32 29z"/>
<path d="M1017 2203 c-10 -9 -8 -43 2 -43 5 0 11 11 13 25 5 24 -2 32 -15 18z"/>
<path d="M2875 2153 c-16 -3 -34 -9 -39 -14 -6 -5 -44 -9 -85 -9 -58 0 -72 -3
-63 -12 9 -9 30 -9 95 0 46 7 104 12 129 12 48 0 71 13 42 24 -16 6 -28 6 -79
-1z"/>
<path d="M3579 1995 c-4 -71 -5 -132 -3 -134 12 -13 14 19 12 135 l-3 129 -6
-130z"/>
<path d="M2495 2100 c-3 -6 -48 -10 -101 -10 -89 0 -94 -1 -94 -21 0 -17 4
-19 18 -13 9 5 54 10 100 12 45 2 82 8 82 13 0 5 30 9 68 9 37 0 74 5 82 10
10 7 -10 10 -67 10 -45 0 -85 -4 -88 -10z"/>
<path d="M2251 2066 c-12 -14 -5 -26 16 -26 15 0 18 26 4 34 -5 3 -14 0 -20
-8z"/>
<path d="M2158 2063 c-58 -6 -45 -23 17 -23 42 0 55 3 55 15 0 8 -8 14 -17 13
-10 -1 -35 -3 -55 -5z"/>
<path d="M1952 2041 c-56 -3 -106 -10 -110 -16 -4 -5 -24 -10 -44 -10 -225 -3
-288 -6 -288 -12 0 -5 75 -5 167 -1 422 19 432 20 403 38 -8 6 -17 9 -20 8 -3
-1 -51 -4 -108 -7z"/>
<path d="M1145 2001 c-28 -3 -50 -11 -50 -18 0 -6 -3 -15 -7 -19 -12 -11 -10
-194 2 -194 6 0 10 25 10 55 0 40 4 55 14 55 7 0 16 9 19 21 5 17 9 19 26 9
17 -9 25 -8 37 5 8 8 22 15 30 15 8 0 14 7 14 16 0 13 7 15 30 11 17 -4 30 -2
30 3 0 12 59 10 66 -2 7 -11 44 -10 44 1 0 5 9 11 20 14 11 3 20 10 20 16 0 7
-36 11 -107 11 -60 0 -117 2 -128 4 -11 2 -42 0 -70 -3z m55 -41 c0 -5 -9 -10
-19 -10 -11 0 -23 5 -26 10 -4 6 5 10 19 10 14 0 26 -4 26 -10z"/>
<path d="M3558 1824 c-5 -4 -8 -22 -8 -41 0 -18 -4 -33 -10 -33 -5 0 -10 -15
-10 -34 0 -21 -6 -36 -15 -40 -10 -3 -15 -19 -15 -45 0 -22 -4 -43 -10 -46 -5
-3 -10 -14 -10 -24 0 -10 -6 -24 -14 -30 -8 -7 -18 -25 -21 -41 -3 -16 -20
-47 -36 -69 -16 -23 -29 -45 -29 -51 0 -5 -4 -10 -10 -10 -5 0 -10 -7 -10 -15
0 -8 -4 -15 -10 -15 -5 0 -10 -6 -10 -12 0 -26 -192 -232 -204 -220 -3 3 -6
-2 -6 -11 0 -10 -7 -17 -15 -17 -8 0 -15 -4 -15 -10 0 -5 7 -10 15 -10 8 0 15
4 15 9 0 5 9 11 20 14 11 3 23 13 26 22 7 16 51 65 59 65 10 0 85 85 91 102 3
10 11 18 18 18 6 0 12 9 13 20 1 11 13 32 27 47 14 15 26 31 26 34 0 3 9 16
20 29 11 13 20 33 20 45 0 13 7 28 15 35 8 7 13 16 10 20 -3 4 2 10 10 14 8 3
15 17 15 31 0 14 5 25 10 25 6 0 10 8 10 19 0 10 7 24 15 31 10 8 15 31 15 65
0 30 5 55 11 57 6 2 9 21 7 42 -2 21 -6 34 -10 30z"/>
<path d="M1100 1702 c0 -41 5 -63 15 -72 9 -7 13 -21 10 -31 -3 -9 -1 -20 5
-24 6 -4 10 7 10 30 0 22 -4 34 -10 30 -6 -4 -10 16 -10 54 0 33 -4 63 -10 66
-6 4 -10 -16 -10 -53z"/>
<path d="M2820 1681 c-14 -4 113 -8 283 -9 200 -1 307 1 307 8 0 12 -550 12
-590 1z"/>
<path d="M2555 1660 c-14 -6 5 -9 58 -9 50 -1 76 3 72 9 -7 12 -102 12 -130 0z"/>
<path d="M2413 1633 c9 -2 23 -2 30 0 6 3 -1 5 -18 5 -16 0 -22 -2 -12 -5z"/>
<path d="M2150 1620 c-11 -7 3 -10 47 -10 34 0 65 5 68 10 8 13 -95 13 -115 0z"/>
<path d="M4470 1620 c0 -5 14 -10 31 -10 17 0 28 4 24 10 -3 6 -17 10 -31 10
-13 0 -24 -4 -24 -10z"/>
<path d="M1986 1590 c7 -7 29 -7 65 -1 l54 9 -64 1 c-44 1 -62 -2 -55 -9z"/>
<path d="M1875 1570 c-4 -6 12 -10 39 -10 25 0 46 5 46 10 0 6 -18 10 -39 10
-22 0 -43 -4 -46 -10z"/>
<path d="M1151 1520 c-1 -34 13 -60 31 -60 14 0 9 29 -6 37 -8 4 -16 19 -19
33 -3 19 -5 17 -6 -10z"/>
<path d="M1760 1540 c0 -5 11 -10 24 -10 14 0 28 5 31 10 4 6 -7 10 -24 10
-17 0 -31 -4 -31 -10z"/>
<path d="M1690 1520 c0 -5 9 -10 19 -10 11 0 23 5 26 10 4 6 -5 10 -19 10 -14
0 -26 -4 -26 -10z"/>
<path d="M1476 1494 c-4 -9 -4 -19 -1 -22 3 -3 5 0 5 6 0 5 12 15 28 20 l27
10 -26 1 c-16 1 -29 -6 -33 -15z"/>
<path d="M1455 1450 c3 -5 8 -10 11 -10 2 0 4 5 4 10 0 6 -5 10 -11 10 -5 0
-7 -4 -4 -10z"/>
<path d="M1190 1424 c0 -29 14 -38 30 -19 7 8 26 15 43 15 42 0 26 12 -28 20
-42 6 -45 5 -45 -16z"/>
<path d="M1416 1425 c-3 -10 -21 -16 -48 -17 l-43 -1 39 -4 c41 -5 90 13 80
29 -8 13 -21 10 -28 -7z"/>
<path d="M1220 1375 c0 -14 5 -25 10 -25 6 0 10 -5 10 -10 0 -12 41 -73 53
-78 4 -2 7 -10 7 -18 0 -8 7 -17 15 -20 8 -4 15 -12 15 -20 0 -8 7 -14 15 -14
8 0 15 -6 15 -14 0 -8 9 -18 20 -21 11 -3 20 -11 20 -16 0 -15 42 -59 57 -59
7 0 13 -6 13 -12 0 -7 25 -26 55 -43 30 -16 55 -33 55 -37 0 -4 6 -8 13 -8 8
0 24 -11 37 -25 13 -14 31 -25 41 -25 10 0 21 -4 24 -10 3 -5 13 -10 21 -10 8
0 33 -9 57 -20 52 -24 88 -29 94 -12 3 8 -6 12 -27 12 -17 0 -50 9 -72 20 -23
11 -50 20 -60 20 -10 0 -18 5 -18 10 0 6 -9 10 -20 10 -11 0 -20 6 -20 13 0 7
-27 28 -61 46 -34 18 -86 57 -116 86 -31 29 -63 59 -72 67 -30 27 -71 78 -71
88 0 5 -7 10 -15 10 -8 0 -15 7 -15 15 0 8 -4 15 -10 15 -5 0 -10 7 -10 15 0
8 -3 15 -8 15 -4 0 -15 18 -25 40 -20 46 -27 50 -27 15z"/>
<path d="M0 1240 c0 -12 8 -21 23 -24 12 -3 34 -7 49 -11 40 -8 78 4 78 25 0
24 -19 30 -91 30 -52 0 -59 -2 -59 -20z"/>
<path d="M2907 1022 c-9 -10 -26 -18 -38 -19 -12 -1 -26 -7 -30 -14 -10 -18
-146 -14 -164 5 -15 15 -55 11 -55 -5 0 -5 -4 -9 -10 -9 -14 0 -53 -40 -46
-47 3 -4 22 2 41 13 33 17 37 18 68 2 17 -8 55 -16 83 -17 28 0 64 -8 80 -16
51 -26 88 -19 135 25 24 22 47 40 51 40 5 0 14 5 21 10 7 6 23 19 37 31 l25
21 -25 -7 c-54 -14 -117 -17 -124 -6 -10 16 -31 13 -49 -7z m43 -26 c0 -11
-19 -15 -25 -6 -3 5 1 10 9 10 9 0 16 -2 16 -4z m35 -6 c-3 -5 -10 -10 -16
-10 -5 0 -9 5 -9 10 0 6 7 10 16 10 8 0 12 -4 9 -10z m-130 -50 c-3 -5 -10
-10 -16 -10 -5 0 -9 5 -9 10 0 6 7 10 16 10 8 0 12 -4 9 -10z"/>
<path d="M62 998 c8 -12 21 -24 29 -27 9 -3 8 1 -4 13 -9 10 -17 22 -17 27 0
5 -5 9 -11 9 -7 0 -6 -8 3 -22z"/>
<path d="M17 973 c-8 -7 11 -33 23 -33 5 0 6 9 3 20 -5 20 -15 25 -26 13z"/>
<path d="M2357 944 c-3 -3 -3 -13 0 -22 5 -11 2 -14 -10 -9 -9 3 -19 2 -22 -4
-4 -5 -12 -9 -18 -8 -44 5 -57 -1 -57 -31 0 -20 -5 -30 -15 -30 -17 0 -20 16
-5 25 19 12 10 25 -17 25 -16 0 -64 -7 -108 -14 -44 -8 -83 -12 -87 -10 -4 3
-8 -3 -8 -12 0 -14 -3 -15 -12 -6 -14 14 -128 16 -128 2 0 -5 15 -10 34 -10
19 0 36 -5 38 -11 2 -6 28 -14 57 -17 34 -3 48 -8 39 -13 -7 -5 29 -9 90 -9
99 0 108 -3 103 -32 0 -5 4 -8 9 -8 6 0 10 11 10 25 0 15 11 36 25 49 14 13
25 28 25 35 0 6 8 11 18 11 9 0 28 9 42 20 14 11 40 20 58 20 20 0 31 4 27 10
-3 6 -17 10 -30 10 -13 0 -27 5 -30 10 -7 11 -19 13 -28 4z m-152 -84 c3 -5
-1 -10 -10 -10 -9 0 -13 5 -10 10 3 6 8 10 10 10 2 0 7 -4 10 -10z m-45 -30
c0 -5 -13 -10 -30 -10 -16 0 -30 5 -30 10 0 6 14 10 30 10 17 0 30 -4 30 -10z"/>
<path d="M1 914 c0 -11 3 -14 6 -6 3 7 2 16 -1 19 -3 4 -6 -2 -5 -13z"/>
<path d="M2024 898 c-10 -15 0 -18 32 -9 l29 8 -28 5 c-15 3 -30 1 -33 -4z"/>
<path d="M2970 880 c0 -5 7 -10 15 -10 8 0 15 5 15 10 0 6 -7 10 -15 10 -8 0
-15 -4 -15 -10z"/>
<path d="M4250 690 c0 -5 5 -10 11 -10 5 0 7 5 4 10 -3 6 -8 10 -11 10 -2 0
-4 -4 -4 -10z"/>
<path d="M3110 655 c0 -13 7 -28 15 -32 8 -5 29 -30 45 -57 34 -53 52 -56 26
-5 -9 18 -16 47 -16 66 0 23 -5 33 -15 33 -8 0 -15 -7 -15 -15 0 -8 -7 -15
-15 -15 -11 0 -12 5 -5 25 7 20 6 25 -5 25 -9 0 -15 -10 -15 -25z"/>
<path d="M3300 600 c0 -5 5 -10 10 -10 6 0 10 5 10 10 0 6 -4 10 -10 10 -5 0
-10 -4 -10 -10z"/>
<path d="M3321 564 c0 -11 3 -14 6 -6 3 7 2 16 -1 19 -3 4 -6 -2 -5 -13z"/>
<path d="M3250 556 c0 -9 -6 -16 -14 -16 -37 0 -18 -67 26 -91 23 -12 37 14
18 35 -6 8 -12 29 -12 46 -1 31 -18 55 -18 26z"/>
<path d="M3340 537 c0 -18 34 -49 43 -40 4 3 7 -1 7 -10 0 -9 5 -17 10 -17 6
0 10 4 10 9 0 12 -29 41 -41 41 -5 0 -9 7 -9 15 0 8 -4 15 -10 15 -5 0 -10 -6
-10 -13z"/>
<path d="M3290 431 c0 -12 6 -21 16 -21 9 0 14 7 12 17 -5 25 -28 28 -28 4z"/>
<path d="M3364 399 c7 -36 25 -54 41 -38 11 11 -15 61 -36 68 -9 3 -10 -5 -5
-30z"/>
<path d="M3110 340 c0 -5 9 -10 20 -10 11 0 20 5 20 10 0 6 -9 10 -20 10 -11
0 -20 -4 -20 -10z"/>
<path d="M3386 314 c-8 -20 0 -32 14 -18 5 5 5 15 1 22 -6 11 -10 10 -15 -4z"/>
<path d="M3090 306 c0 -2 7 -6 15 -10 8 -3 15 -1 15 4 0 6 -7 10 -15 10 -8 0
-15 -2 -15 -4z"/>
<path d="M3150 288 l-25 -11 25 -6 c15 -4 27 -3 29 3 2 6 9 14 15 18 17 12
-15 8 -44 -4z"/>
<path d="M3070 250 c0 -5 7 -10 15 -10 8 0 15 5 15 10 0 6 -7 10 -15 10 -8 0
-15 -4 -15 -10z"/>
<path d="M4495 199 c-4 -5 -12 -9 -18 -8 -7 1 -22 1 -35 0 l-23 -1 25 -24 c15
-13 26 -26 26 -29 0 -3 12 -18 28 -34 40 -43 62 -72 62 -83 0 -23 36 9 38 33
1 20 -2 24 -18 20 -14 -4 -20 0 -20 10 0 9 -7 20 -16 25 -15 8 -15 10 0 15 15
6 15 9 -1 41 -17 37 -38 52 -48 35z"/>
</g>
</svg>
